<?xml version="1.0" encoding="UTF-8"?>
<svg id="Layer_2" data-name="Layer 2" xmlns="http://www.w3.org/2000/svg" viewBox="0 0 252.20481 63.35196">
  <g id="_0" data-name="0">
    <g id="ARC">
      <path d="M47.2724,25.7217c3.95.87,6.96,4.09,7.56,8.1v2.44l-.41,2.22-.79,2-1.15,1.8-2.02,2.1-2.53,1.77-2.97,1.46-4.02,1.39-4.41,1.01-4.69.68-4.83.38-4.84.11c-6.55.08-13.09-.36-19.56-1.31l-.87-.23-.67-.34-.47-.45-.28-.55-.07-1.07.35-1.3L16.8624,7.1817c.43-1.37,1.68-2.32,3.12-2.35,5.41-.69,10.85-1.04,16.31-1.04l4.14.13,3.91.4,3.58.72,3.18,1.06,1.84.91,1.61,1.08,1.32,1.27,1.04,1.47.7,1.66.36,1.88-.02,2.03-.42,1.8-.77,1.59-1.09,1.39-1.34,1.2-2.1,1.31-2.39,1.04-2.59.78.02.21ZM42.8824,16.6617l-.24-.99-.51-.84-.74-.69-.97-.55-1.57-.54-1.83-.31-2.03-.1c-1.68-.03-3.36.06-5.03.28l-3.77,9.07h6.98l2.43-.11,2.32-.35,2.06-.65,1.26-.71.96-.93.56-1.16.12-1.42ZM39.6624,35.2017l-.21-.96-.45-.82-.68-.68-.91-.55-1.56-.53-1.95-.3-2.34-.1h-9.2l-4.17,10.1c2.79.38,5.61.56,8.43.55l2.91-.14,3.03-.46,2.82-.83,1.81-.91,1.4-1.16.64-.93.37-1.07.06-1.21Z"/>
    </g>
    <g id="ARC-2" data-name="ARC">
      <path d="M56.0924,62.6317c-.74.64-1.85.63-2.57-.04l-2.3-2.16c-.05-.04-.1-.09-.14-.14-.69-.79-.61-2,.18-2.69l8.04-7.03c2.02-1.77,3-4.44,2.6-7.1l-.85-2.68-.26-2.35v-3.25l.56-3.25,1.11-3.19,1.63-3.08,2.11-2.92,2.59-2.71,2.52-2.06,2.82-1.85,3.1-1.59,3.38-1.31,3.18-.89,3.37-.63.78-.1.79-.09.8-.07.81-.06.82-.04.83-.02.83-.01,3.51.17,3.37.56,3.13.96,2.82,1.37,1.96,1.4,1.66,1.7,1.31,1.98.92,2.29.48,2.6.11,3.16-.42,3.16-.93,3.14-1.43,3.05-1.9,2.93-2.34,2.74-2.78,2.51-3.2,2.23-2.96,1.62-3.23,1.36-3.48,1.07-1.07.25-1.09.23-1.12.2-1.13.17-1.15.14-1.17.11-1.18.08-.91.03-3.98-.13-3.79-.64c-2.02-.07-4.01.38-5.8,1.3l-10.94,9.57Z"/>
    </g>
    <g id="ARC-3" data-name="ARC">
      <path d="M169.1424.6517l.31.37.14.48-.07.91-.32.89-14.87,35.64-.28.83-.12.73.04.63.17.52.31.41.42.3.53.18.63.07.64.04.51.13.38.23.26.31.13.42-.03.53-.17.62-1.23,3.25c-.48,1.47-1.83,2.49-3.38,2.56-2,.28-4.03.42-6.05.42l-2.23-.19-2-.57-1.72-.94-1.34-1.32-.89-1.71-.37-2.08.08-1.6.36-1.77.69-1.94,15.1-36.18c.34-1.6,1.81-2.7,3.44-2.56h9.41l.88.1.64.29Z"/>
    </g>
    <g id="ARC-4" data-name="ARC">
      <path d="M144.0324.6517l.31.37.14.48-.07.91-.32.89-14.87,35.64-.28.83-.12.73.03.63.18.52.31.41.42.3.53.18.63.07.64.04.51.13.38.23.26.31.13.42-.03.53-.17.62-1.23,3.25c-.48,1.47-1.83,2.49-3.38,2.56-2,.28-4.03.42-6.05.42l-2.23-.19-2-.57-1.72-.94-1.34-1.32-.89-1.71-.38-2.08.08-1.6.37-1.77.68-1.94,15.11-36.18c.34-1.6,1.81-2.7,3.44-2.56h9.41l.88.1.64.29Z"/>
    </g>
    <g id="ARC-5" data-name="ARC">
      <path d="M251.8224,13.5617l.13.88-.05,1.11-.73,5.88-.16.93-.28.71-.43.5-.45.24-.56.11h-.67l-2.18-.1-1.5-.04-2.86.23-2.61.64-2.38,1.02-2.16,1.36-1.97,1.66-1.79,1.92-2.48,3.43-2.12,3.82-1.84,4.05-2.46,5.88c-.33,1.6-1.81,2.7-3.44,2.56h-9.41l-.62-.04-.51-.14-.39-.23-.27-.33-.14-.43-.02-.52.11-.63.26-.72,8.99-21.38c1.37-3.5,2.66-7.03,3.85-10.59.26-1.62,1.73-2.76,3.37-2.63h7.88l.63.05.51.14.4.23.29.34.15.43.03.54-.1.64-.25.75-1.26,3.04c4.12-4.11,9.6-6.59,15.42-6.95l1.47.03,1.12.21.66.3.47.42.35.68Z"/>
    </g>
    <g id="ARC-6" data-name="ARC">
      <path d="M200.8024,39.6517l.32.32.25.45.18.59,1.05,4.84.09.86-.11.68-.35.52-.69.5-1.03.42c-5.98,1.73-12.18,2.54-18.4,2.42l-3.34-.14-3.07-.42-2.78-.72-2.46-1.03-2.1-1.34-1.71-1.64-1.32-1.96-.91-2.29-.47-2.63.02-2.85.51-2.96.98-3.01,1.43-2.99,1.85-2.9,2.23-2.77,2.61-2.56,2.68-2.11,2.95-1.84,3.19-1.51,3.41-1.14,3.62-.72,3.8-.25c7.58-.93,14.53,4.29,15.77,11.83l.03.21c.56,4.52-2.65,8.64-7.17,9.2-7.71,1.97-15.59,3.25-23.53,3.8l-.01.65.04.46.18.78.41.7.65.63.87.53,1.53.55,1.93.36,2.36.12c4.27.01,8.53-.57,12.65-1.73l.73-.15.62.02.51.22ZM196.5524,23.3317l-.01-.81-.19-.66-.34-.59-.81-.74-1.12-.51-.49-.12-.53-.09-.56-.04-.95.03-1.14.17-1.14.3-1.11.42-1.08.54-2.04,1.35-1.81,1.65-1.52,1.87-1.15,1.97c3.9-.22,7.76-.8,11.55-1.73l1.29-.35,1.12-.42,1.11-.65.7-.86.22-.73Z"/>
    </g>
  </g>
</svg>