<?xml version="1.0" encoding="UTF-8"?>
<svg id="Layer_2" data-name="Layer 2" xmlns="http://www.w3.org/2000/svg" viewBox="0 0 252.706 63.85342">
  <defs>
    <style>
      .cls-1 {
        fill: none;
        stroke: #000;
        stroke-miterlimit: 10;
      }
    </style>
  </defs>
  <g id="_0" data-name="0">
    <g>
      <g id="ARC">
        <g>
          <path d="M47.52434,25.97199c3.95.87,6.96,4.09,7.56,8.1v2.44l-.41,2.22-.79,2-1.15,1.8-2.02,2.1-2.53,1.77-2.97,1.46-4.02,1.39-4.41,1.01-4.69.68-4.83.38-4.84.11c-6.55.08-13.09-.36-19.56-1.31l-.87-.23-.67-.34-.47-.45-.28-.55-.07-1.07.35-1.3L17.11434,7.43199c.43-1.37,1.68-2.32,3.12-2.35,5.41-.69,10.85-1.04,16.31-1.04l4.14.13,3.91.4,3.58.72,3.18,1.06,1.84.91,1.61,1.08,1.32,1.27,1.04,1.47.7,1.66.36,1.88-.02,2.03-.42,1.8-.77,1.59-1.09,1.39-1.34,1.2-2.1,1.31-2.39,1.04-2.59.78.02.21ZM43.13434,16.91199l-.24-.99-.51-.84-.74-.69-.97-.55-1.57-.54-1.83-.31-2.03-.1c-1.68-.03-3.36.06-5.03.28l-3.77,9.07h6.98l2.43-.11,2.32-.35,2.06-.65,1.26-.71.96-.93.56-1.16.12-1.42ZM39.91434,35.45199l-.21-.96-.45-.82-.68-.68-.91-.55-1.56-.53-1.95-.3-2.34-.1h-9.2l-4.17,10.1c2.79.38,5.61.56,8.43.55l2.91-.14,3.03-.46,2.82-.83,1.81-.91,1.4-1.16.64-.93.37-1.07.06-1.21Z"/>
          <g>
            <polyline class="cls-1" points="39.91434 35.45199 39.85434 36.66199 39.48434 37.73199 38.84434 38.66199 37.44434 39.82199 35.63434 40.73199 32.81434 41.56199 29.78434 42.02199 26.87434 42.16199"/>
            <polyline class="cls-1" points="31.81434 31.51199 34.15434 31.61199 36.10434 31.91199 37.66434 32.44199 38.57434 32.99199 39.25434 33.67199 39.70434 34.49199 39.91434 35.45199"/>
            <polyline class="cls-1" points="43.13434 16.91199 43.01434 18.33199 42.45434 19.49199 41.49434 20.42199 40.23434 21.13199 38.17434 21.78199 35.85434 22.13199 33.42434 22.24199"/>
            <polyline class="cls-1" points="35.24434 12.89199 37.27434 12.99199 39.10434 13.30199 40.67434 13.84199 41.64434 14.39199 42.38434 15.08199 42.89434 15.92199 43.13434 16.91199"/>
            <polyline class="cls-1" points="36.54434 4.04199 40.68434 4.17199 44.59434 4.57199 48.17434 5.29199 51.35434 6.35199 53.19434 7.26199 54.80434 8.34199 56.12434 9.61199 57.16434 11.08199 57.86434 12.74199 58.22434 14.62199"/>
            <polyline class="cls-1" points="58.22434 14.62199 58.20434 16.65199 57.78434 18.45199 57.01434 20.04199 55.92434 21.43199 54.58434 22.63199 52.48434 23.94199 50.09434 24.98199 47.50434 25.76199"/>
            <polyline class="cls-1" points="55.08434 34.07199 55.08434 36.51199 54.67434 38.73199 53.88434 40.73199 52.73434 42.53199 50.71434 44.63199 48.18434 46.40199 45.21434 47.86199 41.19434 49.25199 36.78434 50.26199 32.09434 50.94199 27.26434 51.32199 22.42434 51.43199"/>
            <polyline class="cls-1" points="2.86434 50.12199 1.99434 49.89199 1.32434 49.55199 .85434 49.10199 .57434 48.55199 .50434 47.48199 .85434 46.18199"/>
            <line class="cls-1" x1="22.61434" y1="31.51199" x2="31.81434" y2="31.51199"/>
            <line class="cls-1" x1="18.44434" y1="41.61199" x2="22.61434" y2="31.51199"/>
            <line class="cls-1" x1="26.44434" y1="22.24199" x2="30.21434" y2="13.17199"/>
            <line class="cls-1" x1="33.42434" y1="22.24199" x2="26.44434" y2="22.24199"/>
            <line class="cls-1" x1="47.50434" y1="25.76199" x2="47.52434" y2="25.97199"/>
            <line class="cls-1" x1=".85434" y1="46.18199" x2="17.11434" y2="7.43199"/>
            <path class="cls-1" d="M18.44434,41.61199c2.79.38,5.61.56,8.43.55"/>
            <path class="cls-1" d="M35.24434,12.89199c-1.68-.03-3.36.06-5.03.28"/>
            <path class="cls-1" d="M36.54434,4.04199c-5.46,0-10.9.35-16.31,1.04"/>
            <path class="cls-1" d="M55.08434,34.07199c-.6-4.01-3.61-7.23-7.56-8.1"/>
            <path class="cls-1" d="M2.86434,50.12199c6.47.95,13.01,1.39,19.56,1.31"/>
            <path class="cls-1" d="M20.23434,5.08199c-1.44.03-2.69.98-3.12,2.35"/>
          </g>
        </g>
      </g>
      <g id="ARC-2" data-name="ARC">
        <g>
          <path d="M56.34434,62.88199c-.74.64-1.85.63-2.57-.04l-2.3-2.16c-.05-.04-.1-.09-.14-.14-.69-.79-.61-2,.18-2.69l8.04-7.03c2.02-1.77,3-4.44,2.6-7.1l-.85-2.68-.26-2.35v-3.25l.56-3.25,1.11-3.19,1.63-3.08,2.11-2.92,2.59-2.71,2.52-2.06,2.82-1.85,3.1-1.59,3.38-1.31,3.18-.89,3.37-.63.78-.1.79-.09.8-.07.81-.06.82-.04.83-.02.83-.01,3.51.17,3.37.56,3.13.96,2.82,1.37,1.96,1.4,1.66,1.7,1.31,1.98.92,2.29.48,2.6.11,3.16-.42,3.16-.93,3.14-1.43,3.05-1.9,2.93-2.34,2.74-2.78,2.51-3.2,2.23-2.96,1.62-3.23,1.36-3.48,1.07-1.07.25-1.09.23-1.12.2-1.13.17-1.15.14-1.17.11-1.18.08-.91.03-3.98-.13-3.79-.64c-2.02-.07-4.01.38-5.8,1.3l-10.94,9.57Z"/>
          <g>
            <line class="cls-1" x1="67.28434" y1="53.31199" x2="56.34434" y2="62.88199"/>
            <polyline class="cls-1" points="61.04434 38.69199 61.04434 35.44199 61.60434 32.19199 62.71434 29.00199 64.34434 25.92199 66.45434 23.00199 69.04434 20.29199 71.56434 18.23199 74.38434 16.38199 77.48434 14.79199 80.86434 13.48199 84.04434 12.59199 87.41434 11.96199 88.19434 11.86199 88.98434 11.77199 89.78434 11.70199 90.59434 11.64199 91.41434 11.60199 92.24434 11.58199 93.07434 11.57199 96.58434 11.74199 99.95434 12.30199 103.08434 13.26199 105.90434 14.63199 107.86434 16.03199 109.52434 17.73199 110.83434 19.71199 111.75434 22.00199 112.23434 24.60199"/>
            <polyline class="cls-1" points="62.15434 43.72199 61.30434 41.04199 61.04434 38.69199"/>
            <polyline class="cls-1" points="112.23434 24.60199 112.34434 27.76199 111.92434 30.92199 110.99434 34.06199 109.56434 37.11199 107.66434 40.04199 105.32434 42.78199 102.54434 45.29199 99.34434 47.52199 96.38434 49.14199 93.15434 50.50199 89.67434 51.57199 88.60434 51.82199 87.51434 52.05199 86.39434 52.25199 85.26434 52.42199 84.11434 52.56199 82.94434 52.67199 81.76434 52.75199 80.85434 52.78199 76.87434 52.65199 73.08434 52.01199"/>
            <line class="cls-1" x1="51.51434" y1="57.85199" x2="59.55434" y2="50.82199"/>
            <line class="cls-1" x1="53.77434" y1="62.84199" x2="51.47434" y2="60.68199"/>
            <path class="cls-1" d="M59.55434,50.82199c2.02-1.77,3-4.44,2.6-7.1"/>
            <path class="cls-1" d="M51.51434,57.85199c-.79.69-.87,1.9-.18,2.69.04.05.09.1.14.14"/>
            <path class="cls-1" d="M53.77434,62.84199c.72.67,1.83.68,2.57.04"/>
            <path class="cls-1" d="M73.08434,52.01199c-2.02-.07-4.01.38-5.8,1.3"/>
          </g>
        </g>
      </g>
      <g id="ARC-3" data-name="ARC">
        <g>
          <path d="M169.39434.90199l.31.37.14.48-.07.91-.32.89-14.87,35.64-.28.83-.12.73.04.63.17.52.31.41.42.3.53.18.63.07.64.04.51.13.38.23.26.31.13.42-.03.53-.17.62-1.23,3.25c-.48,1.47-1.83,2.49-3.38,2.56-2,.28-4.03.42-6.05.42l-2.23-.19-2-.57-1.72-.94-1.34-1.32-.89-1.71-.37-2.08.08-1.6.36-1.77.69-1.94,15.1-36.18c.34-1.6,1.81-2.7,3.44-2.56h9.41l.88.1.64.29Z"/>
          <g>
            <polyline class="cls-1" points="169.84434 1.75199 169.77434 2.66199 169.45434 3.55199"/>
            <polyline class="cls-1" points="167.87434 .51199 168.75434 .61199 169.39434 .90199 169.70434 1.27199 169.84434 1.75199"/>
            <line class="cls-1" x1="158.46434" y1=".51199" x2="167.87434" y2=".51199"/>
            <polyline class="cls-1" points="147.34434 51.37199 145.11434 51.18199 143.11434 50.61199 141.39434 49.67199 140.05434 48.35199 139.16434 46.64199 138.79434 44.56199 138.87434 42.96199 139.23434 41.19199 139.92434 39.25199"/>
            <polyline class="cls-1" points="156.28434 42.86199 156.92434 42.90199 157.43434 43.03199 157.81434 43.26199 158.07434 43.57199 158.20434 43.99199 158.17434 44.52199 158.00434 45.14199"/>
            <polyline class="cls-1" points="154.58434 39.19199 154.30434 40.02199 154.18434 40.75199 154.22434 41.38199 154.39434 41.90199 154.70434 42.31199 155.12434 42.61199 155.65434 42.79199 156.28434 42.86199"/>
            <line class="cls-1" x1="139.92434" y1="39.25199" x2="155.02434" y2="3.07199"/>
            <line class="cls-1" x1="158.00434" y1="45.14199" x2="156.77434" y2="48.39199"/>
            <line class="cls-1" x1="169.45434" y1="3.55199" x2="154.58434" y2="39.19199"/>
            <path class="cls-1" d="M147.34434,51.37199c2.02,0,4.05-.14,6.05-.42"/>
            <path class="cls-1" d="M153.39434,50.95199c1.55-.07,2.9-1.09,3.38-2.56"/>
            <path class="cls-1" d="M158.46434.51199c-1.63-.14-3.1.96-3.44,2.56"/>
          </g>
        </g>
      </g>
      <g id="ARC-4" data-name="ARC">
        <g>
          <path d="M144.28434.90199l.31.37.14.48-.07.91-.32.89-14.87,35.64-.28.83-.12.73.03.63.18.52.31.41.42.3.53.18.63.07.64.04.51.13.38.23.26.31.13.42-.03.53-.17.62-1.23,3.25c-.48,1.47-1.83,2.49-3.38,2.56-2,.28-4.03.42-6.05.42l-2.23-.19-2-.57-1.72-.94-1.34-1.32-.89-1.71-.38-2.08.08-1.6.37-1.77.68-1.94,15.11-36.18c.34-1.6,1.81-2.7,3.44-2.56h9.41l.88.1.64.29Z"/>
          <g>
            <polyline class="cls-1" points="144.73434 1.75199 144.66434 2.66199 144.34434 3.55199"/>
            <polyline class="cls-1" points="142.76434 .51199 143.64434 .61199 144.28434 .90199 144.59434 1.27199 144.73434 1.75199"/>
            <polyline class="cls-1" points="131.17434 42.86199 131.81434 42.90199 132.32434 43.03199 132.70434 43.26199 132.96434 43.57199 133.09434 43.99199 133.06434 44.52199 132.89434 45.14199"/>
            <polyline class="cls-1" points="129.47434 39.19199 129.19434 40.02199 129.07434 40.75199 129.10434 41.38199 129.28434 41.90199 129.59434 42.31199 130.01434 42.61199 130.54434 42.79199 131.17434 42.86199"/>
            <polyline class="cls-1" points="122.23434 51.37199 120.00434 51.18199 118.00434 50.61199 116.28434 49.67199 114.94434 48.35199 114.05434 46.64199 113.67434 44.56199 113.75434 42.96199 114.12434 41.19199 114.80434 39.25199"/>
            <line class="cls-1" x1="132.89434" y1="45.14199" x2="131.66434" y2="48.39199"/>
            <line class="cls-1" x1="133.35434" y1=".51199" x2="142.76434" y2=".51199"/>
            <line class="cls-1" x1="114.80434" y1="39.25199" x2="129.91434" y2="3.07199"/>
            <line class="cls-1" x1="144.34434" y1="3.55199" x2="129.47434" y2="39.19199"/>
            <path class="cls-1" d="M133.35434.51199c-1.63-.14-3.1.96-3.44,2.56"/>
            <path class="cls-1" d="M122.23434,51.37199c2.02,0,4.05-.14,6.05-.42"/>
            <path class="cls-1" d="M128.28434,50.95199c1.55-.07,2.9-1.09,3.38-2.56"/>
          </g>
        </g>
      </g>
      <g id="ARC-5" data-name="ARC">
        <g>
          <path d="M252.07434,13.81199l.13.88-.05,1.11-.73,5.88-.16.93-.28.71-.43.5-.45.24-.56.11h-.67l-2.18-.1-1.5-.04-2.86.23-2.61.64-2.38,1.02-2.16,1.36-1.97,1.66-1.79,1.92-2.48,3.43-2.12,3.82-1.84,4.05-2.46,5.88c-.33,1.6-1.81,2.7-3.44,2.56h-9.41l-.62-.04-.51-.14-.39-.23-.27-.33-.14-.43-.02-.52.11-.63.26-.72,8.99-21.38c1.37-3.5,2.66-7.03,3.85-10.59.26-1.62,1.73-2.76,3.37-2.63h7.88l.63.05.51.14.4.23.29.34.15.43.03.54-.1.64-.25.75-1.26,3.04c4.12-4.11,9.6-6.59,15.42-6.95l1.47.03,1.12.21.66.3.47.42.35.68Z"/>
          <g>
            <polyline class="cls-1" points="209.67434 50.60199 209.05434 50.56199 208.54434 50.42199 208.15434 50.19199 207.88434 49.86199 207.74434 49.43199 207.72434 48.91199 207.83434 48.28199 208.09434 47.56199"/>
            <polyline class="cls-1" points="245.19434 24.03199 242.33434 24.26199 239.72434 24.90199 237.34434 25.92199 235.18434 27.28199 233.21434 28.94199 231.42434 30.86199 228.94434 34.29199 226.82434 38.11199 224.98434 42.16199"/>
            <polyline class="cls-1" points="248.87434 24.17199 246.69434 24.07199 245.19434 24.03199"/>
            <polyline class="cls-1" points="251.42434 21.68199 251.26434 22.61199 250.98434 23.32199 250.55434 23.82199 250.10434 24.06199 249.54434 24.17199 248.87434 24.17199"/>
            <polyline class="cls-1" points="232.18434 12.96199 232.81434 13.01199 233.32434 13.15199 233.72434 13.38199 234.01434 13.72199 234.16434 14.15199 234.19434 14.69199 234.09434 15.33199 233.84434 16.08199"/>
            <polyline class="cls-1" points="248.00434 12.17199 249.47434 12.20199 250.59434 12.41199 251.25434 12.71199 251.72434 13.13199 252.07434 13.81199 252.20434 14.69199 252.15434 15.80199"/>
            <line class="cls-1" x1="224.98434" y1="42.16199" x2="222.52434" y2="48.04199"/>
            <line class="cls-1" x1="252.15434" y1="15.80199" x2="251.42434" y2="21.68199"/>
            <line class="cls-1" x1="233.84434" y1="16.08199" x2="232.58434" y2="19.12199"/>
            <line class="cls-1" x1="208.09434" y1="47.56199" x2="217.08434" y2="26.18199"/>
            <line class="cls-1" x1="219.08434" y1="50.60199" x2="209.67434" y2="50.60199"/>
            <line class="cls-1" x1="224.30434" y1="12.96199" x2="232.18434" y2="12.96199"/>
            <path class="cls-1" d="M248.00434,12.17199c-5.82.36-11.3,2.84-15.42,6.95"/>
            <path class="cls-1" d="M224.30434,12.96199c-1.64-.13-3.11,1.01-3.37,2.63"/>
            <path class="cls-1" d="M217.08434,26.18199c1.37-3.5,2.66-7.03,3.85-10.59"/>
            <path class="cls-1" d="M219.08434,50.60199c1.63.14,3.11-.96,3.44-2.56"/>
          </g>
        </g>
      </g>
      <g id="ARC-6" data-name="ARC">
        <g>
          <path d="M201.05434,39.90199l.32.32.25.45.18.59,1.05,4.84.09.86-.11.68-.35.52-.69.5-1.03.42c-5.98,1.73-12.18,2.54-18.4,2.42l-3.34-.14-3.07-.42-2.78-.72-2.46-1.03-2.1-1.34-1.71-1.64-1.32-1.96-.91-2.29-.47-2.63.02-2.85.51-2.96.98-3.01,1.43-2.99,1.85-2.9,2.23-2.77,2.61-2.56,2.68-2.11,2.95-1.84,3.19-1.51,3.41-1.14,3.62-.72,3.8-.25c7.58-.93,14.53,4.29,15.77,11.83l.03.21c.56,4.52-2.65,8.64-7.17,9.2-7.71,1.97-15.59,3.25-23.53,3.8l-.01.65.04.46.18.78.41.7.65.63.87.53,1.53.55,1.93.36,2.36.12c4.27.01,8.53-.57,12.65-1.73l.73-.15.62.02.51.22ZM196.80434,23.58199l-.01-.81-.19-.66-.34-.59-.81-.74-1.12-.51-.49-.12-.53-.09-.56-.04-.95.03-1.14.17-1.14.3-1.11.42-1.08.54-2.04,1.35-1.81,1.65-1.52,1.87-1.15,1.97c3.9-.22,7.76-.8,11.55-1.73l1.29-.35,1.12-.42,1.11-.65.7-.86.22-.73Z"/>
          <g>
            <polyline class="cls-1" points="180.81434 28.32199 181.96434 26.35199 183.48434 24.48199 185.29434 22.83199 187.33434 21.48199 188.41434 20.94199 189.52434 20.52199 190.66434 20.22199 191.80434 20.05199 192.75434 20.02199 193.31434 20.06199 193.84434 20.15199 194.33434 20.27199 195.45434 20.78199 196.26434 21.52199 196.60434 22.11199 196.79434 22.77199 196.80434 23.58199 196.58434 24.31199 195.88434 25.17199 194.77434 25.82199 193.65434 26.24199 192.36434 26.59199"/>
            <polyline class="cls-1" points="164.20434 39.33199 164.22434 36.48199 164.73434 33.52199 165.71434 30.51199 167.14434 27.52199 168.99434 24.62199 171.22434 21.85199 173.83434 19.29199 176.51434 17.18199 179.46434 15.34199 182.65434 13.83199 186.06434 12.69199 189.68434 11.97199 193.48434 11.72199"/>
            <polyline class="cls-1" points="178.58434 36.76199 178.57434 37.41199 178.61434 37.87199"/>
            <polyline class="cls-1" points="202.85434 46.10199 202.94434 46.96199 202.83434 47.64199 202.48434 48.16199 201.79434 48.66199 200.76434 49.08199"/>
            <polyline class="cls-1" points="178.61434 37.87199 178.79434 38.65199 179.20434 39.35199 179.85434 39.98199 180.72434 40.51199 182.25434 41.06199 184.18434 41.42199 186.54434 41.54199"/>
            <polyline class="cls-1" points="199.19434 39.81199 199.92434 39.66199 200.54434 39.68199 201.05434 39.90199 201.37434 40.22199 201.62434 40.67199 201.80434 41.26199"/>
            <polyline class="cls-1" points="182.36434 51.50199 179.02434 51.36199 175.95434 50.94199 173.17434 50.22199 170.71434 49.19199 168.61434 47.85199 166.90434 46.21199 165.58434 44.25199 164.67434 41.96199 164.20434 39.33199"/>
            <line class="cls-1" x1="201.80434" y1="41.26199" x2="202.85434" y2="46.10199"/>
            <path class="cls-1" d="M182.36434,51.50199c6.22.12,12.42-.69,18.4-2.42"/>
            <path class="cls-1" d="M209.25434,23.55199c-1.24-7.54-8.19-12.76-15.77-11.83"/>
            <path class="cls-1" d="M202.11434,32.96199c4.52-.56,7.73-4.68,7.17-9.2l-.03-.21"/>
            <path class="cls-1" d="M178.58434,36.76199c7.94-.55,15.82-1.83,23.53-3.8"/>
            <path class="cls-1" d="M186.54434,41.54199c4.27.01,8.53-.57,12.65-1.73"/>
            <path class="cls-1" d="M180.81434,28.32199c3.9-.22,7.76-.8,11.55-1.73"/>
          </g>
        </g>
      </g>
    </g>
  </g>
</svg>