  0
SECTION
  2
HEADER
  9
$ACADVER
  1
AC1015
  9
$ACADMAINTVER
 70
     6
  9
$DWGCODEPAGE
  3
ANSI_1252
  9
$INSBASE
 10
0.0
 20
0.0
 30
0.0
  9
$EXTMIN
 10
-44.5504384117
 20
-8.2961029473
 30
0.0
  9
$EXTMAX
 10
44.2454235228
 20
13.8766283077
 30
0.0
  9
$LIMMIN
 10
0.0
 20
0.0
  9
$LIMMAX
 10
420.0
 20
297.0
  9
$ORTHOMODE
 70
     0
  9
$REGENMODE
 70
     1
  9
$FILLMODE
 70
     1
  9
$QTEXTMODE
 70
     0
  9
$MIRRTEXT
 70
     1
  9
$LTSCALE
 40
1.0
  9
$ATTMODE
 70
     1
  9
$TEXTSIZE
 40
3.5
  9
$TRACEWID
 40
1.0
  9
$TEXTSTYLE
  7
Standard
  9
$CLAYER
  8
0
  9
$CELTYPE
  6
ByLayer
  9
$CECOLOR
 62
   256
  9
$CELTSCALE
 40
1.0
  9
$DISPSILH
 70
     0
  9
$DIMSCALE
 40
1.0
  9
$DIMASZ
 40
3.556
  9
$DIMEXO
 40
0.0
  9
$DIMDLI
 40
3.75
  9
$DIMRND
 40
0.0
  9
$DIMDLE
 40
0.0
  9
$DIMEXE
 40
1.0
  9
$DIMTP
 40
0.0
  9
$DIMTM
 40
0.0
  9
$DIMTXT
 40
3.5
  9
$DIMCEN
 40
2.5
  9
$DIMTSZ
 40
0.0
  9
$DIMTOL
 70
     0
  9
$DIMLIM
 70
     0
  9
$DIMTIH
 70
     1
  9
$DIMTOH
 70
     1
  9
$DIMSE1
 70
     0
  9
$DIMSE2
 70
     0
  9
$DIMTAD
 70
     1
  9
$DIMZIN
 70
     1
  9
$DIMBLK
  1

  9
$DIMASO
 70
     1
  9
$DIMSHO
 70
     1
  9
$DIMPOST
  1

  9
$DIMAPOST
  1

  9
$DIMALT
 70
     0
  9
$DIMALTD
 70
     3
  9
$DIMALTF
 40
0.0393700787
  9
$DIMLFAC
 40
1.0
  9
$DIMTOFL
 70
     1
  9
$DIMTVP
 40
0.0
  9
$DIMTIX
 70
     0
  9
$DIMSOXD
 70
     0
  9
$DIMSAH
 70
     0
  9
$DIMBLK1
  1

  9
$DIMBLK2
  1

  9
$DIMSTYLE
  2
ISO-25
  9
$DIMCLRD
 70
     0
  9
$DIMCLRE
 70
     0
  9
$DIMCLRT
 70
     0
  9
$DIMTFAC
 40
1.0
  9
$DIMGAP
 40
1.524
  9
$DIMJUST
 70
     0
  9
$DIMSD1
 70
     0
  9
$DIMSD2
 70
     0
  9
$DIMTOLJ
 70
     0
  9
$DIMTZIN
 70
     1
  9
$DIMALTZ
 70
     0
  9
$DIMALTTZ
 70
     0
  9
$DIMUPT
 70
     0
  9
$DIMDEC
 70
     2
  9
$DIMTDEC
 70
     2
  9
$DIMALTU
 70
     2
  9
$DIMALTTD
 70
     3
  9
$DIMTXSTY
  7
Standard
  9
$DIMAUNIT
 70
     0
  9
$DIMADEC
 70
     2
  9
$DIMALTRND
 40
0.0
  9
$DIMAZIN
 70
     0
  9
$DIMDSEP
 70
    44
  9
$DIMATFIT
 70
     3
  9
$DIMFRAC
 70
     0
  9
$DIMLDRBLK
  1

  9
$DIMLUNIT
 70
     2
  9
$DIMLWD
 70
    -2
  9
$DIMLWE
 70
    -2
  9
$DIMTMOVE
 70
     0
  9
$LUNITS
 70
     2
  9
$LUPREC
 70
     2
  9
$SKETCHINC
 40
1.0
  9
$FILLETRAD
 40
0.0
  9
$AUNITS
 70
     0
  9
$AUPREC
 70
     2
  9
$MENU
  1
.
  9
$ELEVATION
 40
0.0
  9
$PELEVATION
 40
0.0
  9
$THICKNESS
 40
0.0
  9
$LIMCHECK
 70
     0
  9
$CHAMFERA
 40
0.0
  9
$CHAMFERB
 40
0.0
  9
$CHAMFERC
 40
0.0
  9
$CHAMFERD
 40
0.0
  9
$SKPOLY
 70
     0
  9
$TDCREATE
 40
2460854.719527651
  9
$TDUCREATE
 40
2460854.677860984
  9
$TDUPDATE
 40
2460854.71959919
  9
$TDUUPDATE
 40
2460854.677932523
  9
$TDINDWG
 40
0.0000000116
  9
$TDUSRTIMER
 40
0.0000000116
  9
$USRTIMER
 70
     1
  9
$ANGBASE
 50
0.0
  9
$ANGDIR
 70
     0
  9
$PDMODE
 70
     0
  9
$PDSIZE
 40
-1.0
  9
$PLINEWID
 40
0.0
  9
$SPLFRAME
 70
     0
  9
$SPLINETYPE
 70
     6
  9
$SPLINESEGS
 70
     8
  9
$HANDSEED
  5
ED
  9
$SURFTAB1
 70
     6
  9
$SURFTAB2
 70
     6
  9
$SURFTYPE
 70
     6
  9
$SURFU
 70
     6
  9
$SURFV
 70
     6
  9
$UCSBASE
  2

  9
$UCSNAME
  2

  9
$UCSORG
 10
0.0
 20
0.0
 30
0.0
  9
$UCSXDIR
 10
1.0
 20
0.0
 30
0.0
  9
$UCSYDIR
 10
0.0
 20
1.0
 30
0.0
  9
$UCSORTHOREF
  2

  9
$UCSORTHOVIEW
 70
     0
  9
$UCSORGTOP
 10
0.0
 20
0.0
 30
0.0
  9
$UCSORGBOTTOM
 10
0.0
 20
0.0
 30
0.0
  9
$UCSORGLEFT
 10
0.0
 20
0.0
 30
0.0
  9
$UCSORGRIGHT
 10
0.0
 20
0.0
 30
0.0
  9
$UCSORGFRONT
 10
0.0
 20
0.0
 30
0.0
  9
$UCSORGBACK
 10
0.0
 20
0.0
 30
0.0
  9
$PUCSBASE
  2

  9
$PUCSNAME
  2

  9
$PUCSORG
 10
0.0
 20
0.0
 30
0.0
  9
$PUCSXDIR
 10
1.0
 20
0.0
 30
0.0
  9
$PUCSYDIR
 10
0.0
 20
1.0
 30
0.0
  9
$PUCSORTHOREF
  2

  9
$PUCSORTHOVIEW
 70
     0
  9
$PUCSORGTOP
 10
0.0
 20
0.0
 30
0.0
  9
$PUCSORGBOTTOM
 10
0.0
 20
0.0
 30
0.0
  9
$PUCSORGLEFT
 10
0.0
 20
0.0
 30
0.0
  9
$PUCSORGRIGHT
 10
0.0
 20
0.0
 30
0.0
  9
$PUCSORGFRONT
 10
0.0
 20
0.0
 30
0.0
  9
$PUCSORGBACK
 10
0.0
 20
0.0
 30
0.0
  9
$USERI1
 70
     0
  9
$USERI2
 70
     0
  9
$USERI3
 70
     0
  9
$USERI4
 70
     0
  9
$USERI5
 70
     0
  9
$USERR1
 40
0.0
  9
$USERR2
 40
0.0
  9
$USERR3
 40
0.0
  9
$USERR4
 40
0.0
  9
$USERR5
 40
0.0
  9
$WORLDVIEW
 70
     1
  9
$SHADEDGE
 70
     3
  9
$SHADEDIF
 70
    70
  9
$TILEMODE
 70
     1
  9
$MAXACTVP
 70
    64
  9
$PINSBASE
 10
0.0
 20
0.0
 30
0.0
  9
$PLIMCHECK
 70
     0
  9
$PEXTMIN
 10
1.0000000000E+20
 20
1.0000000000E+20
 30
1.0000000000E+20
  9
$PEXTMAX
 10
-1.0000000000E+20
 20
-1.0000000000E+20
 30
-1.0000000000E+20
  9
$PLIMMIN
 10
0.0
 20
0.0
  9
$PLIMMAX
 10
420.0
 20
297.0
  9
$UNITMODE
 70
     0
  9
$VISRETAIN
 70
     1
  9
$PLINEGEN
 70
     0
  9
$PSLTSCALE
 70
     1
  9
$TREEDEPTH
 70
  3020
  9
$CMLSTYLE
  2
Standard
  9
$CMLJUST
 70
     0
  9
$CMLSCALE
 40
20.0
  9
$PROXYGRAPHICS
 70
     1
  9
$MEASUREMENT
 70
     1
  9
$CELWEIGHT
370
    -1
  9
$ENDCAPS
280
     0
  9
$JOINSTYLE
280
     0
  9
$LWDISPLAY
290
     1
  9
$INSUNITS
 70
     4
  9
$HYPERLINKBASE
  1

  9
$STYLESHEET
  1

  9
$XEDIT
290
     1
  9
$CEPSNTYPE
380
     0
  9
$PSTYLEMODE
290
     1
  9
$FINGERPRINTGUID
  2
{4ad286ee-146b-4e42-9172-467b766a3e90}
  9
$VERSIONGUID
  2
{FAEB1C32-E019-11D5-929B-00C0DF256EC4}
  9
$EXTNAMES
290
     1
  9
$PSVPSCALE
 40
0.0
  9
$OLESTARTUP
290
     0
  0
ENDSEC
  0
SECTION
  2
CLASSES
  0
CLASS
  1
ACDBDICTIONARYWDFLT
  2
AcDbDictionaryWithDefault
  3
ObjectDBX Classes
 90
        0
280
     0
281
     0
  0
CLASS
  1
VISUALSTYLE
  2
AcDbVisualStyle
  3
ObjectDBX Classes
 90
     4095
280
     0
281
     0
  0
CLASS
  1
MATERIAL
  2
AcDbMaterial
  3
ObjectDBX Classes
 90
     1153
280
     0
281
     0
  0
CLASS
  1
SCALE
  2
AcDbScale
  3
ObjectDBX Classes
 90
     1153
280
     0
281
     0
  0
CLASS
  1
TABLESTYLE
  2
AcDbTableStyle
  3
ObjectDBX Classes
 90
     4095
280
     0
281
     0
  0
CLASS
  1
MLEADERSTYLE
  2
AcDbMLeaderStyle
  3
ACDB_MLEADERSTYLE_CLASS
 90
     4095
280
     0
281
     0
  0
CLASS
  1
SUN
  2
AcDbSun
  3
SCENEOE
 90
     1153
280
     0
281
     0
  0
CLASS
  1
ACDBPLACEHOLDER
  2
AcDbPlaceHolder
  3
ObjectDBX Classes
 90
        0
280
     0
281
     0
  0
CLASS
  1
LAYOUT
  2
AcDbLayout
  3
ObjectDBX Classes
 90
        0
280
     0
281
     0
  0
ENDSEC
  0
SECTION
  2
TABLES
  0
TABLE
  2
VPORT
  5
8
330
0
100
AcDbSymbolTable
 70
     1
  0
VPORT
  5
29
330
8
100
AcDbSymbolTableRecord
100
AcDbViewportTableRecord
  2
*Active
 70
     0
 10
0.0
 20
0.0
 11
1.0
 21
1.0
 12
-0.1525074444
 22
2.7902626802
 13
0.0
 23
0.0
 14
10.0
 24
10.0
 15
10.0
 25
10.0
 16
0.0
 26
0.0
 36
1.0
 17
0.0
 27
0.0
 37
0.0
 40
22.61618588
 41
4.0047327013
 42
50.0
 43
0.0
 44
0.0
 50
0.0
 51
0.0
 71
     0
 72
   100
 73
     1
 74
     3
 75
     0
 76
     0
 77
     0
 78
     0
281
     0
 65
     1
110
0.0
120
0.0
130
0.0
111
1.0
121
0.0
131
0.0
112
0.0
122
1.0
132
0.0
 79
     0
146
0.0
  0
ENDTAB
  0
TABLE
  2
LTYPE
  5
5
330
0
100
AcDbSymbolTable
 70
     6
  0
LTYPE
  5
14
330
5
100
AcDbSymbolTableRecord
100
AcDbLinetypeTableRecord
  2
ByBlock
 70
     0
  3

 72
    65
 73
     0
 40
0.0
  0
LTYPE
  5
15
330
5
100
AcDbSymbolTableRecord
100
AcDbLinetypeTableRecord
  2
ByLayer
 70
     0
  3

 72
    65
 73
     0
 40
0.0
  0
LTYPE
  5
16
330
5
100
AcDbSymbolTableRecord
100
AcDbLinetypeTableRecord
  2
Continuous
 70
     0
  3
Solid line
 72
    65
 73
     0
 40
0.0
  0
LTYPE
  5
5E
330
5
100
AcDbSymbolTableRecord
100
AcDbLinetypeTableRecord
  2
HIDDEN
 70
     0
  3
Hidden __ __ __ __ __ __ __ __ __ __ __ __ __ __
 72
    65
 73
     2
 40
1.905
 49
1.27
 74
     0
 49
-0.635
 74
     0
  0
LTYPE
  5
5F
330
5
100
AcDbSymbolTableRecord
100
AcDbLinetypeTableRecord
  2
PHANTOM
 70
     0
  3
Phantom ______  __  __  ______  __  __  ______
 72
    65
 73
     6
 40
12.7
 49
6.35
 74
     0
 49
-1.27
 74
     0
 49
1.27
 74
     0
 49
-1.27
 74
     0
 49
1.27
 74
     0
 49
-1.27
 74
     0
  0
LTYPE
  5
60
330
5
100
AcDbSymbolTableRecord
100
AcDbLinetypeTableRecord
  2
CENTER
 70
     0
  3
Center ____ _ ____ _ ____ _ ____ _ ____ _ ____
 72
    65
 73
     4
 40
10.16
 49
6.35
 74
     0
 49
-1.27
 74
     0
 49
1.27
 74
     0
 49
-1.27
 74
     0
  0
LTYPE
  5
61
330
5
100
AcDbSymbolTableRecord
100
AcDbLinetypeTableRecord
  2
CENTERX2
 70
     0
  3
Center (2x) ________  __  ________  __  _____
 72
    65
 73
     4
 40
20.32
 49
12.7
 74
     0
 49
-2.54
 74
     0
 49
2.54
 74
     0
 49
-2.54
 74
     0
  0
LTYPE
  5
62
330
5
100
AcDbSymbolTableRecord
100
AcDbLinetypeTableRecord
  2
DOT2
 70
     0
  3
Dot (.5x) ........................................
 72
    65
 73
     2
 40
0.635
 49
0.0
 74
     0
 49
-0.635
 74
     0
  0
ENDTAB
  0
TABLE
  2
LAYER
  5
2
330
0
100
AcDbSymbolTable
 70
     1
  0
LAYER
  5
10
330
2
100
AcDbSymbolTableRecord
100
AcDbLayerTableRecord
  2
0
 70
     0
 62
     7
  6
Continuous
370
    -3
390
F
  0
ENDTAB
  0
TABLE
  2
STYLE
  5
3
330
0
100
AcDbSymbolTable
 70
     2
  0
STYLE
  5
11
330
3
100
AcDbSymbolTableRecord
100
AcDbTextStyleTableRecord
  2
Standard
 70
     0
 40
0.0
 41
1.0
 50
0.0
 71
     0
 42
3.5
  3
txt
  4

  0
STYLE
  5
E9
330
3
100
AcDbSymbolTableRecord
100
AcDbTextStyleTableRecord
  2
SLDTEXTSTYLE0
 70
     0
 40
0.0
 41
0.7
 50
0.0
 71
     0
 42
3.5
  3
TXT
  4

  0
ENDTAB
  0
TABLE
  2
VIEW
  5
6
330
0
100
AcDbSymbolTable
 70
     0
  0
ENDTAB
  0
TABLE
  2
UCS
  5
7
330
0
100
AcDbSymbolTable
 70
     0
  0
ENDTAB
  0
TABLE
  2
APPID
  5
9
330
0
100
AcDbSymbolTable
 70
     1
  0
APPID
  5
12
330
9
100
AcDbSymbolTableRecord
100
AcDbRegAppTableRecord
  2
ACAD
 70
     0
  0
ENDTAB
  0
TABLE
  2
DIMSTYLE
  5
A
330
0
100
AcDbSymbolTable
 70
     1
100
AcDbDimStyleTable
  0
DIMSTYLE
105
27
330
A
100
AcDbSymbolTableRecord
100
AcDbDimStyleTableRecord
  2
ISO-25
 70
     0
 41
2.5
 42
0.625
 43
3.75
 44
1.25
 73
     0
 74
     0
 77
     1
 78
     8
140
2.5
141
2.5
143
0.0393700787
147
0.625
171
     3
172
     1
178
     0
271
     2
272
     2
274
     3
278
    44
283
     0
284
     8
340
11
  0
ENDTAB
  0
TABLE
  2
BLOCK_RECORD
  5
1
330
0
100
AcDbSymbolTable
 70
     1
  0
BLOCK_RECORD
  5
1F
330
1
100
AcDbSymbolTableRecord
100
AcDbBlockTableRecord
  2
*Model_Space
340
22
  0
BLOCK_RECORD
  5
1B
330
1
100
AcDbSymbolTableRecord
100
AcDbBlockTableRecord
  2
*Paper_Space
340
1E
  0
BLOCK_RECORD
  5
23
330
1
100
AcDbSymbolTableRecord
100
AcDbBlockTableRecord
  2
*Paper_Space0
340
26
  0
ENDTAB
  0
ENDSEC
  0
SECTION
  2
BLOCKS
  0
BLOCK
  5
20
330
1F
100
AcDbEntity
  8
0
100
AcDbBlockBegin
  2
*Model_Space
 70
     0
 10
0.0
 20
0.0
 30
0.0
  3
*Model_Space
  1

  0
ENDBLK
  5
21
330
1F
100
AcDbEntity
  8
0
100
AcDbBlockEnd
  0
BLOCK
  5
1C
330
1B
100
AcDbEntity
 67
     1
  8
0
100
AcDbBlockBegin
  2
*Paper_Space
 70
     0
 10
0.0
 20
0.0
 30
0.0
  3
*Paper_Space
  1

  0
ENDBLK
  5
1D
330
1B
100
AcDbEntity
 67
     1
  8
0
100
AcDbBlockEnd
  0
BLOCK
  5
24
330
23
100
AcDbEntity
  8
0
100
AcDbBlockBegin
  2
*Paper_Space0
 70
     0
 10
0.0
 20
0.0
 30
0.0
  3
*Paper_Space0
  1

  0
ENDBLK
  5
25
330
23
100
AcDbEntity
  8
0
100
AcDbBlockEnd
  0
ENDSEC
  0
SECTION
  2
ENTITIES
  0
LWPOLYLINE
  5
64
330
1F
100
AcDbEntity
  8
0
  6
Continuous
 62
     7
370
    25
100
AcDbPolyline
 90
        9
 70
   128
 43
0.0
 10
-30.6475414883
 20
1.5461365796
 10
-30.6675945073
 20
1.120063886
 10
-30.7979328034
 20
0.7435008192
 10
-31.0252905667
 20
0.4140724398
 10
-31.5192197535
 20
0.0031122295
 10
-32.1568225608
 20
-0.3151539688
 10
-33.1530680448
 20
-0.6091720281
 10
-34.21901196
 20
-0.7716498854
 10
-35.2485278273
 20
-0.8215870566
  0
LWPOLYLINE
  5
65
330
1F
100
AcDbEntity
  8
0
  6
Continuous
 62
     7
370
    25
100
AcDbPolyline
 90
        8
 70
   128
 43
0.0
 10
-33.5028029133
 20
2.9373380619
 10
-32.6786750052
 20
2.9021001387
 10
-31.9897785945
 20
2.7936611192
 10
-31.4391653595
 20
2.6079331285
 10
-31.1187895422
 20
2.4154571358
 10
-30.8792020068
 20
2.1754820949
 10
-30.7216901799
 20
1.8862834336
 10
-30.6475414883
 20
1.5461365796
  0
LWPOLYLINE
  5
68
330
1F
100
AcDbEntity
  8
0
  6
Continuous
 62
     7
370
    25
100
AcDbPolyline
 90
        8
 70
   128
 43
0.0
 10
-29.5111208475
 20
8.0880604663
 10
-29.5513509553
 20
7.5868220414
 10
-29.7516901562
 20
7.176518146
 10
-30.0874701694
 20
6.8497198535
 10
-30.5340227142
 20
6.5989982373
 10
-31.2591023994
 20
6.3702041257
 10
-32.0787833463
 20
6.2458411508
 10
-32.9345925929
 20
6.2083000052
  0
LWPOLYLINE
  5
69
330
1F
100
AcDbEntity
  8
0
  6
Continuous
 62
     7
370
    25
100
AcDbPolyline
 90
        8
 70
   128
 43
0.0
 10
-32.295831398
 20
9.5036898975
 10
-31.5784472631
 20
9.468338882
 10
-30.9313257642
 20
9.359108216
 10
-30.3777496372
 20
9.1712314705
 10
-30.0379627131
 20
8.9758451167
 10
-29.773714004
 20
8.7315283896
 10
-29.594825914
 20
8.4362704518
 10
-29.5111208475
 20
8.0880604663
  0
LWPOLYLINE
  5
6E
330
1F
100
AcDbEntity
  8
0
  6
Continuous
 62
     7
370
    25
100
AcDbPolyline
 90
       11
 70
   128
 43
0.0
 10
-31.836342007
 20
12.6280841472
 10
-30.3753954306
 20
12.5827413961
 10
-28.9971481798
 20
12.4392795616
 10
-27.7323652312
 20
12.1865482719
 10
-26.6118115611
 20
11.813397155
 10
-25.9600957389
 20
11.4922234832
 10
-25.3952706898
 20
11.1092703535
 10
-24.9264519624
 20
10.661233952
 10
-24.562755105
 20
10.1448104648
 10
-24.3132956665
 20
9.556696078
 10
-24.1871891953
 20
8.8935869776
  0
LWPOLYLINE
  5
6F
330
1F
100
AcDbEntity
  8
0
  6
Continuous
 62
     7
370
    25
100
AcDbPolyline
 90
        9
 70
   128
 43
0.0
 10
-24.1871891953
 20
8.8935869776
 10
-24.1957940364
 20
8.1797084973
 10
-24.3436487735
 20
7.5443665672
 10
-24.6157788885
 20
6.9834528908
 10
-24.9972098634
 20
6.4928591718
 10
-25.4729671801
 20
6.0684771138
 10
-26.2136412908
 20
5.6060097061
 10
-27.0567647021
 20
5.240814659
 10
-27.9687100327
 20
4.9636662166
  0
LWPOLYLINE
  5
72
330
1F
100
AcDbEntity
  8
0
  6
Continuous
 62
     7
370
    25
100
AcDbPolyline
 90
       13
 70
   128
 43
0.0
 10
-25.2958787702
 20
2.0346955584
 10
-25.2937244413
 20
1.1733310754
 10
-25.4379002221
 20
0.3906126718
 10
-25.7176858726
 20
-0.3166434779
 10
-26.1223611528
 20
-0.9516211994
 10
-26.8376721404
 20
-1.6913279595
 10
-27.7305399923
 20
-2.3157467166
 10
-28.7755537692
 20
-2.8324243168
 10
-30.1946243199
 20
-3.3208450692
 10
-31.7522831466
 20
-3.6780269637
 10
-33.4046201461
 20
-3.9170109504
 10
-35.1077252152
 20
-4.0508379792
 10
-36.8176882506
 20
-4.0925489999
  0
LWPOLYLINE
  5
74
330
1F
100
AcDbEntity
  8
0
  6
Continuous
 62
     7
370
    25
100
AcDbPolyline
 90
        7
 70
   128
 43
0.0
 10
-43.7172379994
 20
-3.6278221664
 10
-44.0243038413
 20
-3.5467910516
 10
-44.2597119777
 20
-3.4266376018
 10
-44.4257673652
 20
-3.2685977903
 10
-44.5247749608
 20
-3.0739075901
 10
-44.5504384117
 20
-2.6968899246
 10
-44.4251710062
 20
-2.2372164878
  0
LWPOLYLINE
  5
77
330
1F
100
AcDbEntity
  8
0
  6
Continuous
 62
     7
370
    25
100
AcDbPolyline
 90
       29
 70
   128
 43
0.0
 10
-23.1936798092
 20
0.4043767491
 10
-23.1933345027
 20
1.5508854863
 10
-22.9935333985
 20
2.696406468
 10
-22.6027658536
 20
3.8221871045
 10
-22.0295212248
 20
4.9094748063
 10
-21.282288869
 20
5.9395169838
 10
-20.3695581429
 20
6.8935610475
 10
-19.4811778701
 20
7.6225076242
 10
-18.4870437132
 20
8.2734833698
 10
-17.392187348
 20
8.8353735494
 10
-16.2016404503
 20
9.2970634282
 10
-15.0787996859
 20
9.6116384884
 10
-13.8891816489
 20
9.8324368044
 10
-13.6132959431
 20
9.8683429111
 10
-13.3342565487
 20
9.8990556687
 10
-13.0521022586
 20
9.9244893861
 10
-12.7668718655
 20
9.9445583717
 10
-12.478604162
 20
9.9591769342
 10
-12.187337941
 20
9.9682593824
 10
-11.8931119952
 20
9.9717200248
 10
-10.6544185067
 20
9.9092537891
 10
-9.4669420155
 20
9.7125400612
 10
-8.3613202714
 20
9.3755098822
 10
-7.3681910238
 20
8.8920942934
 10
-6.6752707911
 20
8.3958859867
 10
-6.0896404438
 20
7.7989995772
 10
-5.6269865096
 20
7.0983277576
 10
-5.3029955164
 20
6.2907632212
 10
-5.1333539919
 20
5.373198661
  0
LWPOLYLINE
  5
78
330
1F
100
AcDbEntity
  8
0
  6
Continuous
 62
     7
370
    25
100
AcDbPolyline
 90
        3
 70
   128
 43
0.0
 10
-22.7996708054
 20
-1.3698249453
 10
-23.1019955165
 20
-0.4270084926
 10
-23.1936798092
 20
0.4043767491
  0
LWPOLYLINE
  5
80
330
1F
100
AcDbEntity
  8
0
  6
Continuous
 62
     7
370
    25
100
AcDbPolyline
 90
       22
 70
   128
 43
0.0
 10
-5.1333539919
 20
5.373198661
 10
-5.0938686353
 20
4.2610560285
 10
-5.2424063263
 20
3.1431272651
 10
-5.5717736509
 20
2.0367965491
 10
-6.0747771954
 20
0.9594480588
 10
-6.7442235459
 20
-0.0715340275
 10
-7.5729192887
 20
-1.0387655317
 10
-8.55367101
 20
-1.9248622754
 10
-9.6792852959
 20
-2.7124400804
 10
-10.7266034094
 20
-3.2828027192
 10
-11.8659923637
 20
-3.7619425482
 10
-13.093245189
 20
-4.139692668
 10
-13.4709908916
 20
-4.2301729267
 10
-13.8558916078
 20
-4.3107084022
 10
-14.2478397265
 20
-4.3810390329
 10
-14.6467276367
 20
-4.4409047573
 10
-15.0524477272
 20
-4.4900455136
 10
-15.4648923868
 20
-4.5282012402
 10
-15.8839540045
 20
-4.5551118756
 10
-16.2034348438
 20
-4.5677141261
 10
-17.6095524707
 20
-4.5215607204
 10
-18.946666616
 20
-4.2972576236
  0
LWPOLYLINE
  5
82
330
1F
100
AcDbEntity
  8
0
  6
Continuous
 62
     7
370
    25
100
AcDbPolyline
 90
       10
 70
   128
 43
0.0
 10
7.251821415
 20
-4.0687168546
 10
6.4667657883
 20
-4.0022591486
 10
5.7587384325
 20
-3.8027091515
 10
5.1546110835
 20
-3.4698015444
 10
4.6812554773
 20
-3.0032710085
 10
4.3655433497
 20
-2.402852225
 10
4.234346437
 20
-1.6682798752
 10
4.2626602741
 20
-1.1039041945
 10
4.392885863
 20
-0.4797081742
 10
4.6329851994
 20
0.2043867989
  0
LWPOLYLINE
  5
86
330
1F
100
AcDbEntity
  8
0
  6
Continuous
 62
     7
370
    25
100
AcDbPolyline
 90
        8
 70
   128
 43
0.0
 10
10.4066356917
 20
-1.065866546
 10
10.6311330838
 20
-1.0816347799
 10
10.8116227113
 20
-1.1289525606
 10
10.9473019272
 20
-1.2078395068
 10
11.0373680844
 20
-1.3183152372
 10
11.0819257024
 20
-1.4679540336
 10
11.0746189623
 20
-1.652305788
 10
11.0145250063
 20
-1.8713930573
  0
LWPOLYLINE
  5
87
330
1F
100
AcDbEntity
  8
0
  6
Continuous
 62
     7
370
    25
100
AcDbPolyline
 90
        9
 70
   128
 43
0.0
 10
9.8048589029
 20
0.2282189442
 10
9.7064894407
 20
-0.0655029373
 10
9.6654075968
 20
-0.3238675969
 10
9.6777683564
 20
-0.5457020464
 10
9.7397267049
 20
-0.7298332971
 10
9.8474376274
 20
-0.8750883609
 10
9.9970561092
 20
-0.9802942492
 10
10.1847371356
 20
-1.0442779737
 10
10.4066356917
 20
-1.065866546
  0
LWPOLYLINE
  5
89
330
1F
100
AcDbEntity
  8
0
  6
Continuous
 62
     7
370
    25
100
AcDbPolyline
 90
        3
 70
   128
 43
0.0
 10
15.1914607171
 20
13.4336106585
 10
15.1648024499
 20
13.1148809199
 10
15.0515513833
 20
12.7990797898
  0
LWPOLYLINE
  5
8A
330
1F
100
AcDbEntity
  8
0
  6
Continuous
 62
     7
370
    25
100
AcDbPolyline
 90
        5
 70
   128
 43
0.0
 10
14.4940849905
 20
13.8727179358
 10
14.803721779
 20
13.8383591891
 10
15.0294928025
 20
13.7351783164
 10
15.1417199903
 20
13.6057245626
 10
15.1914607171
 20
13.4336106585
  0
LWPOLYLINE
  5
8E
330
1F
100
AcDbEntity
  8
0
  6
Continuous
 62
     7
370
    25
100
AcDbPolyline
 90
        8
 70
   128
 43
0.0
 10
1.5482272812
 20
-1.065866546
 10
1.7727246733
 20
-1.0816347799
 10
1.9532143009
 20
-1.1289525606
 10
2.0888935168
 20
-1.2078395068
 10
2.1789596739
 20
-1.3183152372
 10
2.2235172919
 20
-1.4679540336
 10
2.2162105518
 20
-1.652305788
 10
2.1561165958
 20
-1.8713930573
  0
LWPOLYLINE
  5
8F
330
1F
100
AcDbEntity
  8
0
  6
Continuous
 62
     7
370
    25
100
AcDbPolyline
 90
        9
 70
   128
 43
0.0
 10
0.9464504924
 20
0.2282189442
 10
0.8480810302
 20
-0.0655029373
 10
0.8069991863
 20
-0.3238675969
 10
0.819359946
 20
-0.5457020464
 10
0.8813182945
 20
-0.7298332971
 10
0.989029217
 20
-0.8750883609
 10
1.1386476988
 20
-0.9802942492
 10
1.3263287251
 20
-1.0442779737
 10
1.5482272812
 20
-1.065866546
  0
LWPOLYLINE
  5
90
330
1F
100
AcDbEntity
  8
0
  6
Continuous
 62
     7
370
    25
100
AcDbPolyline
 90
        3
 70
   128
 43
0.0
 10
6.3330523067
 20
13.4336106585
 10
6.3063940394
 20
13.1148809199
 10
6.1931429728
 20
12.7990797898
  0
LWPOLYLINE
  5
91
330
1F
100
AcDbEntity
  8
0
  6
Continuous
 62
     7
370
    25
100
AcDbPolyline
 90
        5
 70
   128
 43
0.0
 10
5.6356765801
 20
13.8727179358
 10
5.9453133685
 20
13.8383591891
 10
6.171084392
 20
13.7351783164
 10
6.2833115799
 20
13.6057245626
 10
6.3330523067
 20
13.4336106585
  0
LWPOLYLINE
  5
95
330
1F
100
AcDbEntity
  8
0
  6
Continuous
 62
     7
370
    25
100
AcDbPolyline
 90
       10
 70
   128
 43
0.0
 10
-1.6065869954
 20
-4.0687168546
 10
-2.3916426221
 20
-4.0022591486
 10
-3.0996699779
 20
-3.8027091515
 10
-3.7037973269
 20
-3.4698015444
 10
-4.1771529332
 20
-3.0032710085
 10
-4.4928650607
 20
-2.402852225
 10
-4.6240619735
 20
-1.6682798752
 10
-4.5957481363
 20
-1.1039041945
 10
-4.4655225475
 20
-0.4797081742
 10
-4.2254232111
 20
0.2043867989
  0
LWPOLYLINE
  5
9A
330
1F
100
AcDbEntity
  8
0
  6
Continuous
 62
     7
370
    25
100
AcDbPolyline
 90
       10
 70
   128
 43
0.0
 10
41.7715420157
 20
5.5737691364
 10
40.7642715499
 20
5.4951181846
 10
39.8434420668
 20
5.2686113322
 10
39.0035298134
 20
4.9084175841
 10
38.2390110366
 20
4.428705945
 10
37.5443619833
 20
3.8436454197
 10
36.9140589006
 20
3.1674050131
 10
36.0403017568
 20
1.9546009082
 10
35.2903647381
 20
0.6066094356
 10
34.6428131059
 20
-0.8215870566
  0
LWPOLYLINE
  5
9B
330
1F
100
AcDbEntity
  8
0
  6
Continuous
 62
     7
370
    25
100
AcDbPolyline
 90
        3
 70
   128
 43
0.0
 10
43.069901843
 20
5.5249132386
 10
42.3022907554
 20
5.5616622541
 10
41.7715420157
 20
5.5737691364
  0
LWPOLYLINE
  5
9C
330
1F
100
AcDbEntity
  8
0
  6
Continuous
 62
     7
370
    25
100
AcDbPolyline
 90
        7
 70
   128
 43
0.0
 10
43.9689422496
 20
6.4037235967
 10
43.9131974766
 20
6.0750281518
 10
43.8132239009
 20
5.8250845544
 10
43.6625732127
 20
5.6510560973
 10
43.5044527026
 20
5.5657283556
 10
43.3079381815
 20
5.5241393922
 10
43.069901843
 20
5.5249132386
  0
LWPOLYLINE
  5
A0
330
1F
100
AcDbEntity
  8
0
  6
Continuous
 62
     7
370
    25
100
AcDbPolyline
 90
        9
 70
   128
 43
0.0
 10
37.1829673755
 20
9.4792619486
 10
37.4027303803
 20
9.4630891382
 10
37.5844021337
 20
9.4140028319
 10
37.7260742507
 20
9.3311512166
 10
37.8258383463
 20
9.2136824793
 10
37.8817860356
 20
9.060744807
 10
37.8920089335
 20
8.8714863866
 10
37.8545986552
 20
8.6450554053
 10
37.7676468155
 20
8.3806000499
  0
LWPOLYLINE
  5
A4
330
1F
100
AcDbEntity
  8
0
  6
Continuous
 62
     7
370
    25
100
AcDbPolyline
 90
        9
 70
   128
 43
0.0
 10
29.2396298394
 20
-3.7994136126
 10
29.021288268
 20
-3.7832873495
 10
28.8426403307
 20
-3.7345268733
 10
28.7050742449
 20
-3.652559654
 10
28.6099782279
 20
-3.5368131615
 10
28.5587404971
 20
-3.3867148659
 10
28.5527492697
 20
-3.201692237
 10
28.5933927631
 20
-2.9811727448
 10
28.6820591946
 20
-2.7245838593
  0
LWPOLYLINE
  5
A8
330
1F
100
AcDbEntity
  8
0
  6
Continuous
 62
     7
370
    25
100
AcDbPolyline
 90
        8
 70
   128
 43
0.0
 10
42.761460428
 20
9.7607019965
 10
43.2814084987
 20
9.7473011447
 10
43.6774264837
 20
9.6735771724
 10
43.9087973071
 20
9.5691016974
 10
44.0757680293
 20
9.4202258068
 10
44.1979615136
 20
9.1807323624
 10
44.2454235228
 20
8.8685328391
 10
44.2271423773
 20
8.4783118457
  0
LWPOLYLINE
  5
A9
330
1F
100
AcDbEntity
  8
0
  6
Continuous
 62
     7
370
    25
100
AcDbPolyline
 90
       23
 70
   128
 43
0.0
 10
19.0608309408
 20
4.0604279095
 10
19.4658233437
 20
4.7579032565
 10
20.0005626923
 20
5.4149908032
 10
20.6400842076
 20
5.9986394084
 10
21.3594231105
 20
6.4757979314
 10
21.7412225889
 20
6.6641149305
 10
22.1336146221
 20
6.8134152312
 10
22.5334786126
 20
6.9195674408
 10
22.9376939633
 20
6.9784401668
 10
23.2720121019
 20
6.9883486675
 10
23.4706160552
 20
6.9745600153
 10
23.6568966559
 20
6.9454660209
 10
23.8302046351
 20
6.9019354267
 10
24.2239998904
 20
6.7218816431
 10
24.508616304
 20
6.4618192511
 10
24.631625636
 20
6.2521303714
 10
24.6969909906
 20
6.0190850229
 10
24.6996216116
 20
5.732271783
 10
24.6236305745
 20
5.4772954951
 10
24.3745422713
 20
5.1740600512
 10
23.9828456709
 20
4.9431006618
 10
23.5895573764
 20
4.7972616404
 10
23.1327982043
 20
4.6705308293
  0
LWPOLYLINE
  5
AB
330
1F
100
AcDbEntity
  8
0
  6
Continuous
 62
     7
370
    25
100
AcDbPolyline
 90
       14
 70
   128
 43
0.0
 10
13.2004475172
 20
0.1793630463
 10
13.2057567192
 20
1.1844607814
 10
13.3866276765
 20
2.228194504
 10
13.7336899166
 20
3.2882966779
 10
14.2375729673
 20
4.3424997667
 10
14.8889063561
 20
5.3685362339
 10
15.6783196107
 20
6.3441385433
 10
16.5964422588
 20
7.2470391585
 10
17.5431192716
 20
7.9918135972
 10
18.582856478
 20
8.6396358289
 10
19.7084362284
 20
9.1733541806
 10
20.912640873
 20
9.5758169793
 10
22.188252762
 20
9.829872552
 10
23.5280542458
 20
9.9183692258
  0
LWPOLYLINE
  5
AF
330
1F
100
AcDbEntity
  8
0
  6
Continuous
 62
     7
370
    25
100
AcDbPolyline
 90
        3
 70
   128
 43
0.0
 10
18.2715510056
 20
1.0826013534
 10
18.2696347324
 20
0.8553061379
 10
18.281913558
 20
0.6917541704
  0
LWPOLYLINE
  5
B2
330
1F
100
AcDbEntity
  8
0
  6
Continuous
 62
     7
370
    25
100
AcDbPolyline
 90
        6
 70
   128
 43
0.0
 10
26.8343289875
 20
-2.2121927352
 10
26.8683648767
 20
-2.5156528095
 10
26.8263207501
 20
-2.7528555032
 10
26.7057602382
 20
-2.9390074285
 10
26.4595576553
 20
-3.1135460436
 10
26.0969207069
 20
-3.2631903432
  0
LWPOLYLINE
  5
B3
330
1F
100
AcDbEntity
  8
0
  6
Continuous
 62
     7
370
    25
100
AcDbPolyline
 90
        8
 70
   128
 43
0.0
 10
18.281913558
 20
0.6917541704
 10
18.347044632
 20
0.4189529094
 10
18.4929629402
 20
0.1705190861
 10
18.7199312249
 20
-0.0498468004
 10
19.0282122288
 20
-0.2384442511
 10
19.566194142
 20
-0.4340940273
 10
20.2498218949
 20
-0.5579163656
 10
21.0797182847
 20
-0.6011397125
  0
LWPOLYLINE
  5
B4
330
1F
100
AcDbEntity
  8
0
  6
Continuous
 62
     7
370
    25
100
AcDbPolyline
 90
        7
 70
   128
 43
0.0
 10
25.5425327312
 20
0.0089632074
 10
25.8019471667
 20
0.0615107053
 10
26.0208627538
 20
0.0524877011
 10
26.1997374854
 20
-0.0238722267
 10
26.3124903781
 20
-0.134864596
 10
26.4010290653
 20
-0.2937841424
 10
26.4655757004
 20
-0.5034279167
  0
LWPOLYLINE
  5
B5
330
1F
100
AcDbEntity
  8
0
  6
Continuous
 62
     7
370
    25
100
AcDbPolyline
 90
       10
 70
   128
 43
0.0
 10
19.6058091979
 20
-4.1163811452
 10
18.4276516499
 20
-4.0671011996
 10
17.3441315679
 20
-3.9169376807
 10
16.364596998
 20
-3.6624050658
 10
15.4983959863
 20
-3.300017832
 10
14.7548765789
 20
-2.8262904564
 10
14.1530943346
 20
-2.2492744082
 10
13.6875246447
 20
-1.5581948836
 10
13.3670236565
 20
-0.7497497697
 10
13.2004475172
 20
0.1793630463
  0
LINE
  5
B7
330
1F
100
AcDbEntity
  8
0
  6
Continuous
 62
     7
370
    25
100
AcDbLine
 10
-36.7499327113
 20
2.9373380619
 30
0.0
 11
-33.5028029133
 21
2.9373380619
 31
0.0
  0
LINE
  5
B8
330
1F
100
AcDbEntity
  8
0
  6
Continuous
 62
     7
370
    25
100
AcDbLine
 10
-38.2196195869
 20
-0.6261634651
 30
0.0
 11
-36.7499327113
 21
2.9373380619
 31
0.0
  0
LINE
  5
B9
330
1F
100
AcDbEntity
  8
0
  6
Continuous
 62
     7
370
    25
100
AcDbLine
 10
-35.4000280249
 20
6.2083000052
 30
0.0
 11
-34.0687355852
 21
9.4059781017
 31
0.0
  0
LINE
  5
BA
330
1F
100
AcDbEntity
  8
0
  6
Continuous
 62
     7
370
    25
100
AcDbLine
 10
-32.9345925929
 20
6.2083000052
 30
0.0
 11
-35.4000280249
 21
6.2083000052
 31
0.0
  0
LINE
  5
BB
330
1F
100
AcDbEntity
  8
0
  6
Continuous
 62
     7
370
    25
100
AcDbLine
 10
-27.9687100327
 20
4.9636662166
 30
0.0
 11
-27.9622985269
 21
4.8903823698
 31
0.0
  0
LINE
  5
BC
330
1F
100
AcDbEntity
  8
0
  6
Continuous
 62
     7
370
    25
100
AcDbLine
 10
-44.4251710062
 20
-2.2372164878
 30
0.0
 11
-38.6882760864
 21
11.4317104528
 31
0.0
  0
LINE
  5
BD
330
1F
100
AcDbEntity
  8
0
  6
Continuous
 62
     7
370
    25
100
AcDbLine
 10
-26.553511425
 20
-6.3547254263
 30
0.0
 11
-23.7197572907
 21
-3.8770988606
 31
0.0
  0
LINE
  5
BE
330
1F
100
AcDbEntity
  8
0
  6
Continuous
 62
     7
370
    25
100
AcDbLine
 10
-25.7559154643
 20
-8.1147785767
 30
0.0
 11
-26.5697516007
 21
-7.355227726
 31
0.0
  0
LINE
  5
BF
330
1F
100
AcDbEntity
  8
0
  6
Continuous
 62
     7
370
    25
100
AcDbLine
 10
-20.9914460167
 20
-4.7539927349
 30
0.0
 11
-24.8520822519
 21
-8.1294496176
 31
0.0
  0
LINE
  5
C0
330
1F
100
AcDbEntity
  8
0
  6
Continuous
 62
     7
370
    25
100
AcDbLine
 10
4.6329851994
 20
0.2043867989
 30
0.0
 11
9.9603442527
 21
12.9700754323
 31
0.0
  0
LINE
  5
C1
330
1F
100
AcDbEntity
  8
0
  6
Continuous
 62
     7
370
    25
100
AcDbLine
 10
11.0145250063
 20
-1.8713930573
 30
0.0
 11
10.5774006759
 21
-3.0177192466
 31
0.0
  0
LINE
  5
C2
330
1F
100
AcDbEntity
  8
0
  6
Continuous
 62
     7
370
    25
100
AcDbLine
 10
15.0515513833
 20
12.7990797898
 30
0.0
 11
9.8048589029
 21
0.2282189442
 31
0.0
  0
LINE
  5
C3
330
1F
100
AcDbEntity
  8
0
  6
Continuous
 62
     7
370
    25
100
AcDbLine
 10
11.1742671493
 20
13.8727179358
 30
0.0
 11
14.4940849905
 21
13.8727179358
 31
0.0
  0
LINE
  5
C4
330
1F
100
AcDbEntity
  8
0
  6
Continuous
 62
     7
370
    25
100
AcDbLine
 10
2.1561165958
 20
-1.8713930573
 30
0.0
 11
1.7189922654
 21
-3.0177192466
 31
0.0
  0
LINE
  5
C5
330
1F
100
AcDbEntity
  8
0
  6
Continuous
 62
     7
370
    25
100
AcDbLine
 10
2.3158587389
 20
13.8727179358
 30
0.0
 11
5.6356765801
 21
13.8727179358
 31
0.0
  0
LINE
  5
C6
330
1F
100
AcDbEntity
  8
0
  6
Continuous
 62
     7
370
    25
100
AcDbLine
 10
-4.2254232111
 20
0.2043867989
 30
0.0
 11
1.1019358423
 21
12.9700754323
 31
0.0
  0
LINE
  5
C7
330
1F
100
AcDbEntity
  8
0
  6
Continuous
 62
     7
370
    25
100
AcDbLine
 10
6.1931429728
 20
12.7990797898
 30
0.0
 11
0.9464504924
 21
0.2282189442
 31
0.0
  0
LINE
  5
C8
330
1F
100
AcDbEntity
  8
0
  6
Continuous
 62
     7
370
    25
100
AcDbLine
 10
34.6428131059
 20
-0.8215870566
 30
0.0
 11
33.7745100584
 21
-2.8961753055
 31
0.0
  0
LINE
  5
C9
330
1F
100
AcDbEntity
  8
0
  6
Continuous
 62
     7
370
    25
100
AcDbLine
 10
44.2271423773
 20
8.4783118457
 30
0.0
 11
43.9689422496
 21
6.4037235967
 31
0.0
  0
LINE
  5
CA
330
1F
100
AcDbEntity
  8
0
  6
Continuous
 62
     7
370
    25
100
AcDbLine
 10
37.7676468155
 20
8.3806000499
 30
0.0
 11
37.3241631053
 21
7.3069619039
 31
0.0
  0
LINE
  5
CB
330
1F
100
AcDbEntity
  8
0
  6
Continuous
 62
     7
370
    25
100
AcDbLine
 10
28.6820591946
 20
-2.7245838593
 30
0.0
 11
31.8544564475
 21
4.817098523
 31
0.0
  0
LINE
  5
CC
330
1F
100
AcDbEntity
  8
0
  6
Continuous
 62
     7
370
    25
100
AcDbLine
 10
32.5594476806
 20
-3.7994136126
 30
0.0
 11
29.2396298394
 21
-3.7994136126
 31
0.0
  0
LINE
  5
CD
330
1F
100
AcDbEntity
  8
0
  6
Continuous
 62
     7
370
    25
100
AcDbLine
 10
34.400564411
 20
9.4792619486
 30
0.0
 11
37.1829673755
 21
9.4792619486
 31
0.0
  0
LINE
  5
CE
330
1F
100
AcDbEntity
  8
0
  6
Continuous
 62
     7
370
    25
100
AcDbLine
 10
26.4655757004
 20
-0.5034279167
 30
0.0
 11
26.8343289875
 21
-2.2121927352
 31
0.0
  0
ARC
  5
CF
330
1F
100
AcDbEntity
  8
0
  6
Continuous
 62
     7
370
    25
100
AcDbCircle
 10
-35.3157412149
 20
20.8395191447
 30
0.0
 40
21.66121048104444
100
AcDbArc
 50
262.2957949724
 51
270.1777855221
  0
ARC
  5
D0
330
1F
100
AcDbEntity
  8
0
  6
Continuous
 62
     7
370
    25
100
AcDbCircle
 10
-32.5468848689
 20
-2.0739775435
 30
0.0
 40
11.58038907890347
100
AcDbArc
 50
88.7577765139
 51
97.5514367042
  0
ARC
  5
D1
330
1F
100
AcDbEntity
  8
0
  6
Continuous
 62
     7
370
    25
100
AcDbCircle
 10
-31.8303904216
 20
-32.814406993
 30
0.0
 40
45.44249152987985
100
AcDbArc
 50
90.007504006
 51
97.2809522101
  0
ARC
  5
D2
330
1F
100
AcDbEntity
  8
0
  6
Continuous
 62
     7
370
    25
100
AcDbCircle
 10
-28.7058387772
 20
1.5234301127
 30
0.0
 40
3.448074767952069
100
AcDbArc
 50
8.5270097824
 51
77.5469667222
  0
ARC
  5
D3
330
1F
100
AcDbEntity
  8
0
  6
Continuous
 62
     7
370
    25
100
AcDbCircle
 10
-37.3059619126
 20
40.1076326571
 30
0.0
 40
44.20287852256234
100
AcDbArc
 50
261.6602858212
 51
270.6329132849
  0
ARC
  5
D4
330
1F
100
AcDbEntity
  8
0
  6
Continuous
 62
     7
370
    25
100
AcDbCircle
 10
-37.5619745748
 20
11.0829136284
 30
0.0
 40
1.179073500604831
100
AcDbArc
 50
91.3395242523
 51
162.7931173865
  0
ARC
  5
D5
330
1F
100
AcDbEntity
  8
0
  6
Continuous
 62
     7
370
    25
100
AcDbCircle
 10
-25.5508314828
 20
-1.7826976868
 30
0.0
 40
2.781968542957557
100
AcDbArc
 50
311.1622597967
 51
8.5348114178
  0
ARC
  5
D6
330
1F
100
AcDbEntity
  8
0
  6
Continuous
 62
     7
370
    25
100
AcDbCircle
 10
-26.1097149066
 20
-6.8623120966
 30
0.0
 40
0.6742400000000021
100
AcDbArc
 50
131.1640649717
 51
226.9760456217
  0
ARC
  5
D7
330
1F
100
AcDbEntity
  8
0
  6
Continuous
 62
     7
370
    25
100
AcDbCircle
 10
-25.2958787702
 20
-7.6218629473
 30
0.0
 40
0.6742400000000067
100
AcDbArc
 50
226.9760456217
 51
311.1640649717
  0
ARC
  5
D8
330
1F
100
AcDbEntity
  8
0
  6
Continuous
 62
     7
370
    25
100
AcDbCircle
 10
-19.0954296297
 20
-8.4368065375
 30
0.0
 40
4.142221100434816
100
AcDbArc
 50
87.9418466664
 51
117.2406867395
  0
ARC
  5
D9
330
1F
100
AcDbEntity
  8
0
  6
Continuous
 62
     7
370
    25
100
AcDbCircle
 10
7.2785524768
 20
11.0511302641
 30
0.0
 40
15.11987074816236
100
AcDbArc
 50
269.8987043046
 51
278.0173362695
  0
ARC
  5
DA
330
1F
100
AcDbEntity
  8
0
  6
Continuous
 62
     7
370
    25
100
AcDbCircle
 10
9.3317445788
 20
-2.6121084771
 30
0.0
 40
1.310030231884148
100
AcDbArc
 50
272.4332296996
 51
341.9637049542
  0
ARC
  5
DB
330
1F
100
AcDbEntity
  8
0
  6
Continuous
 62
     7
370
    25
100
AcDbCircle
 10
11.0797438113
 20
12.7322419492
 30
0.0
 40
1.144386358459922
100
AcDbArc
 50
85.262119889
 51
168.0050068841
  0
ARC
  5
DC
330
1F
100
AcDbEntity
  8
0
  6
Continuous
 62
     7
370
    25
100
AcDbCircle
 10
2.2213354009
 20
12.7322419492
 30
0.0
 40
1.144386358459909
100
AcDbArc
 50
85.262119889
 51
168.0050068841
  0
ARC
  5
DD
330
1F
100
AcDbEntity
  8
0
  6
Continuous
 62
     7
370
    25
100
AcDbCircle
 10
-1.5798559336
 20
11.051130264
 30
0.0
 40
15.11987074810996
100
AcDbArc
 50
269.8987043046
 51
278.0173362695
  0
ARC
  5
DE
330
1F
100
AcDbEntity
  8
0
  6
Continuous
 62
     7
370
    25
100
AcDbCircle
 10
0.4733361684
 20
-2.6121084771
 30
0.0
 40
1.310030231884714
100
AcDbArc
 50
272.4332296996
 51
341.9637049542
  0
ARC
  5
DF
330
1F
100
AcDbEntity
  8
0
  6
Continuous
 62
     7
370
    25
100
AcDbCircle
 10
43.2929642714
 20
1.3317466254
 30
0.0
 40
8.445696240284875
100
AcDbArc
 50
93.6081174547
 51
134.9692313271
  0
ARC
  5
E0
330
1F
100
AcDbEntity
  8
0
  6
Continuous
 62
     7
370
    25
100
AcDbCircle
 10
34.3097413103
 20
8.3711604343
 30
0.0
 40
1.111817341835046
100
AcDbArc
 50
85.3143514367
 51
170.6602413419
  0
ARC
  5
E1
330
1F
100
AcDbEntity
  8
0
  6
Continuous
 62
     7
370
    25
100
AcDbCircle
 10
-39.6640149912
 20
32.942022847
 30
0.0
 40
76.84987394368287
100
AcDbArc
 50
338.5325686809
 51
341.4955939393
  0
ARC
  5
E2
330
1F
100
AcDbEntity
  8
0
  6
Continuous
 62
     7
370
    25
100
AcDbCircle
 10
32.6568900373
 20
-2.661608162
 30
0.0
 40
1.141970339558162
100
AcDbArc
 50
265.1050979007
 51
348.1467543986
  0
ARC
  5
E3
330
1F
100
AcDbEntity
  8
0
  6
Continuous
 62
     7
370
    25
100
AcDbCircle
 10
20.0295762152
 20
17.7785016608
 30
0.0
 40
21.89898334565656
100
AcDbArc
 50
268.8912007111
 51
286.0848475341
  0
ARC
  5
E4
330
1F
100
AcDbEntity
  8
0
  6
Continuous
 62
     7
370
    25
100
AcDbCircle
 10
24.1357473544
 20
4.9327618838
 30
0.0
 40
5.02250649412837
100
AcDbArc
 50
9.3040072602
 51
96.949472118
  0
ARC
  5
E5
330
1F
100
AcDbEntity
  8
0
  6
Continuous
 62
     7
370
    25
100
AcDbCircle
 10
26.2151409017
 20
5.3119880551
 30
0.0
 40
2.909406920231921
100
AcDbArc
 50
277.1089629925
 51
8.5545428656
  0
ARC
  5
E6
330
1F
100
AcDbEntity
  8
0
  6
Continuous
 62
     7
370
    25
100
AcDbCircle
 10
14.9979612932
 20
47.6868248392
 30
0.0
 40
46.71905431748139
100
AcDbArc
 50
274.0179900625
 51
284.3476904122
  0
ARC
  5
E7
330
1F
100
AcDbEntity
  8
0
  6
Continuous
 62
     7
370
    25
100
AcDbCircle
 10
21.1179047357
 20
15.7470038688
 30
0.0
 40
16.34818817974428
100
AcDbArc
 50
269.866167159
 51
285.7029160317
  0
ARC
  5
E8
330
1F
100
AcDbEntity
  8
0
  6
Continuous
 62
     7
370
    25
100
AcDbCircle
 10
17.7880389147
 20
26.449009414
 30
0.0
 40
22.42473146606659
100
AcDbArc
 50
273.2537657564
 51
283.7887148736
  0
MTEXT
  5
EA
330
1F
100
AcDbEntity
  8
0
  6
Continuous
 62
     7
100
AcDbMText
 10
-44.5504384117
 20
-9.3156693389
 30
0.0
 40
4.83362
 41
0.0
 71
     1
 72
     1
  1
SOLIDWORKS Maker Product.
  7
SLDTEXTSTYLE0
 73
     1
 44
1.0
  0
MTEXT
  5
EB
330
1F
100
AcDbEntity
  8
0
  6
Continuous
 62
     7
100
AcDbMText
 10
-44.5504384117
 20
-16.5660993389
 30
0.0
 40
4.83362
 41
0.0
 71
     1
 72
     1
  1
For Personal Use Only.
  7
SLDTEXTSTYLE0
 73
     1
 44
1.0
  0
ENDSEC
  0
SECTION
  2
OBJECTS
  0
DICTIONARY
  5
C
330
0
100
AcDbDictionary
281
     1
  3
ACAD_GROUP
350
D
  3
ACAD_LAYOUT
350
1A
  3
ACAD_MLINESTYLE
350
17
  3
ACAD_PLOTSETTINGS
350
19
  3
ACAD_PLOTSTYLENAME
350
E
  3
ACAD_SCALELIST
350
47
  3
DWGPROPS
350
EC
  0
DICTIONARY
  5
D
102
{ACAD_REACTORS
330
C
102
}
330
C
100
AcDbDictionary
281
     1
  0
DICTIONARY
  5
1A
102
{ACAD_REACTORS
330
C
102
}
330
C
100
AcDbDictionary
281
     1
  3
Layout1
350
1E
  3
Layout2
350
26
  3
Model
350
22
  0
DICTIONARY
  5
17
102
{ACAD_REACTORS
330
C
102
}
330
C
100
AcDbDictionary
281
     1
  3
Standard
350
18
  0
DICTIONARY
  5
19
102
{ACAD_REACTORS
330
C
102
}
330
C
100
AcDbDictionary
281
     1
  0
ACDBDICTIONARYWDFLT
  5
E
102
{ACAD_REACTORS
330
C
102
}
330
C
100
AcDbDictionary
281
     1
  3
Normal
350
F
100
AcDbDictionaryWithDefault
340
F
  0
DICTIONARY
  5
47
102
{ACAD_REACTORS
330
C
102
}
330
C
100
AcDbDictionary
281
     1
  3
A0
350
48
  3
A1
350
49
  3
A2
350
4A
  3
A3
350
4B
  3
A4
350
4C
  3
A5
350
4D
  3
A6
350
4E
  3
A7
350
4F
  3
A8
350
50
  3
A9
350
51
  3
B0
350
52
  3
B1
350
53
  3
B2
350
54
  3
B3
350
55
  3
B4
350
56
  3
B5
350
57
  3
B6
350
58
  0
XRECORD
  5
EC
102
{ACAD_REACTORS
330
C
102
}
330
C
100
AcDbXrecord
280
     1
  1
DWGPROPS COOKIE
  2

  3

  4

  6

  7

  8
vaspa
  9

300
=
301
=
302
=
303
=
304
=
305
=
306
=
307
=
308
=
309
=
 40
0.0
 41
2460854.677860984
 42
2460854.677932523
  1

 90
        0
  0
LAYOUT
  5
1E
102
{ACAD_REACTORS
330
1A
102
}
330
1A
100
AcDbPlotSettings
  1

  2
none_device
  4

  6

 40
0.0
 41
0.0
 42
0.0
 43
0.0
 44
0.0
 45
0.0
 46
0.0
 47
0.0
 48
0.0
 49
0.0
140
0.0
141
0.0
142
1.0
143
1.0
 70
   688
 72
     1
 73
     0
 74
     5
  7

 75
    16
147
1.0
148
0.0
149
0.0
100
AcDbLayout
  1
Layout1
 70
     1
 71
     1
 10
0.0
 20
0.0
 11
420.0
 21
297.0
 12
0.0
 22
0.0
 32
0.0
 14
1.0000000000E+20
 24
1.0000000000E+20
 34
1.0000000000E+20
 15
-1.0000000000E+20
 25
-1.0000000000E+20
 35
-1.0000000000E+20
146
0.0
 13
0.0
 23
0.0
 33
0.0
 16
1.0
 26
0.0
 36
0.0
 17
0.0
 27
1.0
 37
0.0
 76
     0
330
1B
  0
LAYOUT
  5
26
102
{ACAD_REACTORS
330
1A
102
}
330
1A
100
AcDbPlotSettings
  1

  2
none_device
  4

  6

 40
0.0
 41
0.0
 42
0.0
 43
0.0
 44
0.0
 45
0.0
 46
0.0
 47
0.0
 48
0.0
 49
0.0
140
0.0
141
0.0
142
1.0
143
1.0
 70
   688
 72
     1
 73
     0
 74
     5
  7

 75
    16
147
1.0
148
0.0
149
0.0
100
AcDbLayout
  1
Layout2
 70
     1
 71
     2
 10
0.0
 20
0.0
 11
0.0
 21
0.0
 12
0.0
 22
0.0
 32
0.0
 14
0.0
 24
0.0
 34
0.0
 15
0.0
 25
0.0
 35
0.0
146
0.0
 13
0.0
 23
0.0
 33
0.0
 16
1.0
 26
0.0
 36
0.0
 17
0.0
 27
1.0
 37
0.0
 76
     0
330
23
  0
LAYOUT
  5
22
102
{ACAD_REACTORS
330
1A
102
}
330
1A
100
AcDbPlotSettings
  1

  2
none_device
  4
ANSI_A_(11.00_x_8.50_Inches)
  6

 40
6.35
 41
19.05
 42
6.35000508
 43
19.05000254
 44
279.4
 45
215.9
 46
133.8250699831
 47
80.208113972
 48
0.0
 49
0.0
140
0.0
141
0.0
142
0.1226408502
143
1.0
 70
  1696
 72
     0
 73
     0
 74
     0
  7

 75
     0
147
0.0179189148
148
-1300.4909072572
149
0.0
100
AcDbLayout
  1
Model
 70
     1
 71
     0
 10
0.0
 20
0.0
 11
420.0
 21
297.0
 12
0.0
 22
0.0
 32
0.0
 14
-44.5504384117
 24
-8.2961029473
 34
0.0
 15
44.2454235228
 25
13.8766283077
 35
0.0
146
0.0
 13
0.0
 23
0.0
 33
0.0
 16
1.0
 26
0.0
 36
0.0
 17
0.0
 27
1.0
 37
0.0
 76
     0
330
1F
331
29
  0
MLINESTYLE
  5
18
102
{ACAD_REACTORS
330
17
102
}
330
17
100
AcDbMlineStyle
  2
Standard
 70
     0
  3

 62
   256
 51
90.0
 52
90.0
 71
     2
 49
0.5
 62
   256
  6
BYLAYER
 49
-0.5
 62
   256
  6
BYLAYER
  0
ACDBPLACEHOLDER
  5
F
102
{ACAD_REACTORS
330
E
102
}
330
E
  0
SCALE
  5
48
102
{ACAD_REACTORS
330
47
102
}
330
47
100
AcDbScale
 70
     0
300
1:1
140
1.0
141
1.0
290
     1
  0
SCALE
  5
49
102
{ACAD_REACTORS
330
47
102
}
330
47
100
AcDbScale
 70
     0
300
1:2
140
1.0
141
2.0
290
     0
  0
SCALE
  5
4A
102
{ACAD_REACTORS
330
47
102
}
330
47
100
AcDbScale
 70
     0
300
1:4
140
1.0
141
4.0
290
     0
  0
SCALE
  5
4B
102
{ACAD_REACTORS
330
47
102
}
330
47
100
AcDbScale
 70
     0
300
1:5
140
1.0
141
5.0
290
     0
  0
SCALE
  5
4C
102
{ACAD_REACTORS
330
47
102
}
330
47
100
AcDbScale
 70
     0
300
1:8
140
1.0
141
8.0
290
     0
  0
SCALE
  5
4D
102
{ACAD_REACTORS
330
47
102
}
330
47
100
AcDbScale
 70
     0
300
1:10
140
1.0
141
10.0
290
     0
  0
SCALE
  5
4E
102
{ACAD_REACTORS
330
47
102
}
330
47
100
AcDbScale
 70
     0
300
1:16
140
1.0
141
16.0
290
     0
  0
SCALE
  5
4F
102
{ACAD_REACTORS
330
47
102
}
330
47
100
AcDbScale
 70
     0
300
1:20
140
1.0
141
20.0
290
     0
  0
SCALE
  5
50
102
{ACAD_REACTORS
330
47
102
}
330
47
100
AcDbScale
 70
     0
300
1:30
140
1.0
141
30.0
290
     0
  0
SCALE
  5
51
102
{ACAD_REACTORS
330
47
102
}
330
47
100
AcDbScale
 70
     0
300
1:40
140
1.0
141
40.0
290
     0
  0
SCALE
  5
52
102
{ACAD_REACTORS
330
47
102
}
330
47
100
AcDbScale
 70
     0
300
1:50
140
1.0
141
50.0
290
     0
  0
SCALE
  5
53
102
{ACAD_REACTORS
330
47
102
}
330
47
100
AcDbScale
 70
     0
300
1:100
140
1.0
141
100.0
290
     0
  0
SCALE
  5
54
102
{ACAD_REACTORS
330
47
102
}
330
47
100
AcDbScale
 70
     0
300
2:1
140
2.0
141
1.0
290
     0
  0
SCALE
  5
55
102
{ACAD_REACTORS
330
47
102
}
330
47
100
AcDbScale
 70
     0
300
4:1
140
4.0
141
1.0
290
     0
  0
SCALE
  5
56
102
{ACAD_REACTORS
330
47
102
}
330
47
100
AcDbScale
 70
     0
300
8:1
140
8.0
141
1.0
290
     0
  0
SCALE
  5
57
102
{ACAD_REACTORS
330
47
102
}
330
47
100
AcDbScale
 70
     0
300
10:1
140
10.0
141
1.0
290
     0
  0
SCALE
  5
58
102
{ACAD_REACTORS
330
47
102
}
330
47
100
AcDbScale
 70
     0
300
100:1
140
100.0
141
1.0
290
     0
  0
ENDSEC
  0
EOF
