<?xml version="1.0" encoding="UTF-8"?>
<svg id="Layer_2" data-name="Layer 2" xmlns="http://www.w3.org/2000/svg" viewBox="0 0 251.44446 63.05633">
  <g id="_0" data-name="0">
    <g id="ARC">
      <path d="M46.9,25.70632c3.9.9,7,4.1,7.6,8.1v2.4l-.4,2.2-.8,2-1.1,1.8-2,2.10001-2.5,1.8-3,1.5-4,1.39999-4.4,1-4.7.7-4.8.39999h-4.8c-6.6.2-13.1-.2-19.6-1.2l-.9-.2-.7-.3-.5-.39999-.3-.60001v-1.10001l.3-1.3L16.6,7.20631c.4-1.4,1.7-2.3,3.1-2.4,5.4-.7,10.9-1,16.3-1h4.1c0,.1,3.9.5,3.9.5l3.6.7,3.2,1.1,1.8.9,1.6,1.1,1.3,1.3,1,1.5.7,1.7.4,1.9v2l-.4,1.8-.8,1.6-1.1,1.4-1.3,1.2-2.1,1.3-2.4,1-2.6.8v.2-.09998ZM42.5,16.60632l-.2-1-.5-.8-.7-.7-1-.6-1.6-.5-1.8-.3h-2c-1.7-.1-3.4,0-5,.2l-3.8,9.1h9.4c0-.1,2.3-.5,2.3-.5l2.1-.6,1.3-.7,1-.9.6-1.2v-1.4l-.09999-.1ZM39.3,35.10632l-.2-1-.4-.8-.7-.7-.9-.6-1.6-.5-1.9-.3h-11.5l-4.2,10.10001c2.8.39999,5.6.60001,8.4.60001h2.9c0-.10001,3-.60001,3-.60001l2.8-.8,1.8-.89999,1.4-1.2.6-.9.4-1.1v-1.2l.10001-.10001Z"/>
    </g>
    <g id="ARC1">
      <path d="M55.7,62.60633c-.7.60001-1.8.60001-2.6,0l-2.3-2.2-.1-.10001c-.7-.8-.6-2,.2-2.7l8-7c2-1.8,3-4.39999,2.6-7.10001l-.9-2.7-.3-2.4v-3.2l.6-3.2,1.1-3.2,1.6-3.1,2.1-2.9,2.6-2.7,2.5-2.1,2.8-1.8,3.1-1.6,3.4-1.3,3.2-.9,3.4-.6h.8c0-.1.8-.2.8-.2h.8l.8-.1h2.40001l3.5.2,3.4.6,3.1,1,2.8,1.4,2,1.4,1.7,1.7,1.3,2,.9,2.3.5,2.6v3.2c.1,0-.3,3.2-.3,3.2l-.9,3.1-1.4,3.1-1.9,2.89999-2.3,2.7-2.8,2.5-3.2,2.2-3,1.60001-3.2,1.39999-3.5,1.10001-1.1.2-1.1.2-1.1.2-1.1.2h-1.1c0,.10001-1.2.2-1.2.2h-1.2l-.9.10001h-4c0-.10001-3.8-.8-3.8-.8-2,0-4,.39999-5.8,1.3l-10.9,9.60001v-.29999Z"/>
    </g>
    <g id="ARC2">
      <path d="M168.7.60632l.3.4v.5c.10001,0,0,.9,0,.9l-.3.9-14.89999,35.6-.3.8v.7c-.10001,0,0,.60001,0,.60001l.2.5.3.39999.39999.3.5.2h.60001l.60001.10001h.5c0,.10001.39999.39999.39999.39999l.3.3v.39999c.10001,0,.10001.5.10001.5l-.2.60001-1.2,3.2c-.5,1.5-1.8,2.5-3.39999,2.60001-2,.3-4,.39999-6.10001.39999l-2.2-.2-2-.60001-1.7-.89999-1.3-1.3-.89999-1.7-.39999-2.10001v-1.60001l.39999-1.8.7-1.9,15.10001-36.2c.3-1.6,1.8-2.7,3.39999-2.6h10.3l.60001.4.19997.20002Z"/>
    </g>
    <g id="ARC3">
      <path d="M143.59999.60632l.3.4v.5c.10001,0,0,.9,0,.9l-.3.9-14.89999,35.6-.3.8v.7c-.10001,0,0,.60001,0,.60001l.2.5.3.39999.39999.3.5.2h.60001l.60001.10001h.5c0,.10001.39999.39999.39999.39999l.3.3v.39999c.10001,0,.10001.5.10001.5l-.2.60001-1.2,3.2c-.5,1.5-1.8,2.5-3.39999,2.60001-2,.3-4,.39999-6.10001.39999l-2.2-.2-2-.60001-1.7-.89999-1.3-1.3-.89999-1.7-.39999-2.10001v-1.60001l.39999-1.8.7-1.9,15.10001-36.2c.3-1.6,1.8-2.7,3.39999-2.6h10.3l.60001.4.19997.20002Z"/>
    </g>
    <g id="ARC4">
      <path d="M251.40001,13.50632v.9c.10001,0,0,1.1,0,1.1l-.70001,5.9-.20001.9-.29999.7-.39999.5-.5.2h-.60001c0,.1-.70001.1-.70001.1h-2.20001c0-.1-1.5-.1-1.5-.1l-2.89999.2-2.60001.6-2.39999,1-2.2,1.4-2,1.7-1.8,1.9-2.5,3.4-2.10001,3.8-1.8,4.10001-2.5,5.89999c-.3,1.60001-1.8,2.7-3.39999,2.60001h-10l-.5-.2-.39999-.2-.3-.3v-.39999c-.10001,0-.2-.5-.2-.5v-.60001c.10001,0,.39999-.7.39999-.7l9-21.4c1.39999-3.5,2.7-7,3.89999-10.6.3-1.6,1.7-2.8,3.39999-2.6h8.5l.5.2.39999.2.3.3v.4c.10001,0,.2.5.2.5v.6c-.10001,0-.39999.8-.39999.8l-1.3,3c4.10001-4.1,9.60001-6.6,15.39999-6.9h1.5l1.10001.2.70001.3.5.4.29999.7h.30005Z"/>
    </g>
    <g id="ARC5">
      <path d="M200.4,39.60633l.3.3.2.39999.2.60001,1,4.8v1.59999l-.3.5-.7.5-1,.39999c-6,1.7-12.2,2.5-18.39999,2.39999h-3.3c0-.10001-3.10001-.60001-3.10001-.60001l-2.8-.7-2.5-1-2.10001-1.3-1.7-1.60001-1.3-2-.89999-2.3-.5-2.6v-2.9l.5-3,1-3,1.39999-3,1.8-2.9,2.2-2.8,2.60001-2.6,2.7-2.1,3-1.8,3.2-1.5,3.39999-1.1,3.60001-.7,3.8-.2c7.60001-.9,14.5,4.3,15.8,11.8v.2c.60001,4.5-2.60001,8.6-7.10001,9.2-7.7,2-15.60001,3.2-23.5,3.8v1.1l.2.8.39999.7.60001.6.89999.5,1.5.5,1.89999.39999h2.39999c4.3.10001,8.5-.39999,12.60001-1.6h.7c0-.1.60001-.1.60001-.1l.5.2.20003.10004ZM196.2,23.30633v-.8l-.2-.7-.3-.6-.8-.7-1.10001-.5h-.5c0-.1-.5-.2-.5-.2h-1.5l-1.10001.2-1.10001.3-1.10001.4-1.10001.5-2,1.4-1.8,1.6-1.5,1.9-1.10001,2c3.89999-.2,7.8-.8,11.5-1.7l1.3-.4,1.10001-.4,1.10001-.6.7-.9.2-.7-.19997-.10001Z"/>
    </g>
  </g>
</svg>