<?xml version="1.0" encoding="UTF-8"?>
<svg id="_x30_" xmlns="http://www.w3.org/2000/svg" baseProfile="tiny" version="1.2" viewBox="0 0 283.5 283.5">
  <!-- Generator: Adobe Illustrator 29.5.1, SVG Export Plug-In . SVG Version: 2.1.0 Build 141)  -->
  <g id="ARC">
    <path d="M63.2,114.2c3.9.9,7,4.1,7.6,8.1v2.4l-.4,2.2-.8,2-1.1,1.8-2,2.1-2.5,1.8-3,1.5-4,1.4-4.4,1-4.7.7-4.8.4h-4.8c-6.6.2-13.1-.2-19.6-1.2l-.9-.2-.7-.3-.5-.4-.3-.6v-1.1c0,0,.3-1.3.3-1.3l16.3-38.8c.4-1.4,1.7-2.3,3.1-2.4,5.4-.7,10.9-1,16.3-1h4.1c0,.1,3.9.5,3.9.5l3.6.7,3.2,1.1,1.8.9,1.6,1.1,1.3,1.3,1,1.5.7,1.7.4,1.9v2s-.4,1.8-.4,1.8l-.8,1.6-1.1,1.4-1.3,1.2-2.1,1.3-2.4,1-2.6.8v.2ZM58.8,105.1l-.2-1-.5-.8-.7-.7-1-.6-1.6-.5-1.8-.3h-2c-1.7-.1-3.4,0-5,.2l-3.8,9.1h9.4c0-.1,2.3-.5,2.3-.5l2.1-.6,1.3-.7,1-.9.6-1.2v-1.4ZM55.6,123.6l-.2-1-.4-.8-.7-.7-.9-.6-1.6-.5-1.9-.3h-2.3c0,0-9.2,0-9.2,0l-4.2,10.1c2.8.4,5.6.6,8.4.6h2.9c0-.1,3-.6,3-.6l2.8-.8,1.8-.9,1.4-1.2.6-.9.4-1.1v-1.2Z"/>
  </g>
  <g id="ARC1" data-name="ARC">
    <path d="M72,151.1c-.7.6-1.8.6-2.6,0l-2.3-2.2s0,0-.1-.1c-.7-.8-.6-2,.2-2.7l8-7c2-1.8,3-4.4,2.6-7.1l-.9-2.7-.3-2.4v-3.2l.6-3.2,1.1-3.2,1.6-3.1,2.1-2.9,2.6-2.7,2.5-2.1,2.8-1.8,3.1-1.6,3.4-1.3,3.2-.9,3.4-.6h.8c0-.1.8-.2.8-.2h.8c0,0,.8-.1.8-.1h.8s.8,0,.8,0h.8s3.5.2,3.5.2l3.4.6,3.1,1,2.8,1.4,2,1.4,1.7,1.7,1.3,2,.9,2.3.5,2.6v3.2c.1,0-.3,3.2-.3,3.2l-.9,3.1-1.4,3.1-1.9,2.9-2.3,2.7-2.8,2.5-3.2,2.2-3,1.6-3.2,1.4-3.5,1.1-1.1.2-1.1.2-1.1.2-1.1.2h-1.1c0,.1-1.2.2-1.2.2h-1.2c0,0-.9.1-.9.1h-4c0-.1-3.8-.8-3.8-.8-2,0-4,.4-5.8,1.3l-10.9,9.6Z"/>
  </g>
  <g id="ARC2" data-name="ARC">
    <path d="M185,89.1l.3.4v.5c.1,0,0,.9,0,.9l-.3.9-14.9,35.6-.3.8v.7c-.1,0,0,.6,0,.6l.2.5.3.4.4.3.5.2h.6c0,0,.6.1.6.1h.5c0,.1.4.4.4.4l.3.3v.4c.1,0,.1.5.1.5l-.2.6-1.2,3.2c-.5,1.5-1.8,2.5-3.4,2.6-2,.3-4,.4-6.1.4l-2.2-.2-2-.6-1.7-.9-1.3-1.3-.9-1.7-.4-2.1v-1.6c0,0,.4-1.8.4-1.8l.7-1.9,15.1-36.2c.3-1.6,1.8-2.7,3.4-2.6h10.3c0,0,.6.4.6.4Z"/>
  </g>
  <g id="ARC3" data-name="ARC">
    <path d="M159.9,89.1l.3.4v.5c.1,0,0,.9,0,.9l-.3.9-14.9,35.6-.3.8v.7c-.1,0,0,.6,0,.6l.2.5.3.4.4.3.5.2h.6c0,0,.6.1.6.1h.5c0,.1.4.4.4.4l.3.3v.4c.1,0,.1.5.1.5l-.2.6-1.2,3.2c-.5,1.5-1.8,2.5-3.4,2.6-2,.3-4,.4-6.1.4l-2.2-.2-2-.6-1.7-.9-1.3-1.3-.9-1.7-.4-2.1v-1.6c0,0,.4-1.8.4-1.8l.7-1.9,15.1-36.2c.3-1.6,1.8-2.7,3.4-2.6h10.3c0,0,.6.4.6.4Z"/>
  </g>
  <g id="ARC4" data-name="ARC">
    <path d="M267.7,102v.9c.1,0,0,1.1,0,1.1l-.7,5.9-.2.9-.3.7-.4.5-.5.2h-.6c0,.1-.7.1-.7.1h-2.2c0-.1-1.5-.1-1.5-.1l-2.9.2-2.6.6-2.4,1-2.2,1.4-2,1.7-1.8,1.9-2.5,3.4-2.1,3.8-1.8,4.1-2.5,5.9c-.3,1.6-1.8,2.7-3.4,2.6h-10s-.5-.2-.5-.2l-.4-.2-.3-.3v-.4c-.1,0-.2-.5-.2-.5v-.6c.1,0,.4-.7.4-.7l9-21.4c1.4-3.5,2.7-7,3.9-10.6.3-1.6,1.7-2.8,3.4-2.6h8.5c0,0,.5.2.5.2l.4.2.3.3v.4c.1,0,.2.5.2.5v.6c-.1,0-.4.8-.4.8l-1.3,3c4.1-4.1,9.6-6.6,15.4-6.9h1.5s1.1.2,1.1.2l.7.3.5.4.3.7Z"/>
  </g>
  <g id="ARC5" data-name="ARC">
    <path d="M216.7,128.1l.3.3.2.4.2.6,1,4.8v.9c0,0,0,.7,0,.7l-.3.5-.7.5-1,.4c-6,1.7-12.2,2.5-18.4,2.4h-3.3c0-.1-3.1-.6-3.1-.6l-2.8-.7-2.5-1-2.1-1.3-1.7-1.6-1.3-2-.9-2.3-.5-2.6v-2.9s.5-3,.5-3l1-3,1.4-3,1.8-2.9,2.2-2.8,2.6-2.6,2.7-2.1,3-1.8,3.2-1.5,3.4-1.1,3.6-.7,3.8-.2c7.6-.9,14.5,4.3,15.8,11.8v.2c.6,4.5-2.6,8.6-7.1,9.2-7.7,2-15.6,3.2-23.5,3.8v.6s0,.5,0,.5l.2.8.4.7.6.6.9.5,1.5.5,1.9.4h2.4c4.3.1,8.5-.4,12.6-1.6h.7c0-.1.6-.1.6-.1l.5.2ZM212.5,111.8v-.8s-.2-.7-.2-.7l-.3-.6-.8-.7-1.1-.5h-.5c0-.1-.5-.2-.5-.2h-.6s-.9,0-.9,0l-1.1.2-1.1.3-1.1.4-1.1.5-2,1.4-1.8,1.6-1.5,1.9-1.1,2c3.9-.2,7.8-.8,11.5-1.7l1.3-.4,1.1-.4,1.1-.6.7-.9.2-.7Z"/>
  </g>
</svg>