<?xml version="1.0" encoding="UTF-8"?>
<svg id="Layer_2" data-name="Layer 2" xmlns="http://www.w3.org/2000/svg" viewBox="0 0 226.77 46.24">
  <g id="Layer_1-2" data-name="Layer 1">
    <path d="M42.36,22.75l.02.19c4.18,1.43,6.51,3.93,6.81,7.29,1.07,12.28-14.96,15.64-29.42,15.64-5.49,0-13.75-.44-17.62-1.19-2.09-.37-2.57-1.62-1.81-3.55L14.99,6.23c.61-1.5,1.21-1.87,2.81-2.12,3.44-.56,10.51-.94,14.69-.94,10.16,0,18.9,2.37,19.53,9.54.5,5.73-4.23,8.66-9.66,10.03ZM35.52,31.47c-.22-2.49-2.74-3.55-7.29-3.55h-8.29l-3.75,9.1c2.08.31,5.09.5,7.59.5,4.98,0,12.15-1.43,11.75-6.05ZM29.68,19.57c4.36,0,9.07-1.06,8.74-4.8-.22-2.56-3.31-3.61-7.11-3.61-1.56,0-3.48.06-4.53.25l-3.4,8.16h6.3Z"/>
    <path d="M102.98,34.9L116.59,2.3c.82-1.99,1.48-2.3,3.1-2.3h8.48c1.06,0,1.72.37,1.78,1.12.04.44-.04.94-.36,1.62l-13.4,32.1c-.87,2.12-.08,3.3,1.54,3.3,1.5,0,2.06.68,1.55,2.06l-1.12,2.93c-.61,1.62-1.38,2-3.04,2.31-1.41.25-3.96.38-5.45.38-5.55,0-9.73-3.62-6.69-10.91Z"/>
    <path d="M125.6,34.9l13.6-32.59c.82-1.99,1.48-2.3,3.1-2.3h8.48c1.06,0,1.72.37,1.78,1.12.04.44-.04.94-.36,1.62l-13.4,32.1c-.87,2.12-.08,3.3,1.54,3.3,1.5,0,2.06.68,1.55,2.06l-1.12,2.93c-.61,1.62-1.38,2-3.04,2.31-1.41.25-3.96.38-5.45.38-5.55,0-9.73-3.62-6.69-10.91Z"/>
    <path d="M147.48,34.96c-.91-10.41,10.48-24.87,26.37-24.87,7.35,0,13.62,3.93,14.21,10.66.45,5.11-1.74,7.17-6.43,8.48-4.8,1.37-13.4,2.81-21.2,3.43-.03.37,0,.68.03,1,.17,1.93,2.53,3.3,7.14,3.3,4.3,0,8.42-.68,11.39-1.56,1.28-.37,2.05-.06,2.36,1.31l.94,4.36c.32,1.56-.25,2.12-1.88,2.68-3.15,1.06-9.16,2.18-16.57,2.18-9.29,0-15.68-3.3-16.35-10.97ZM172.84,23.5c2.5-.62,4.18-1.37,4.01-3.3-.13-1.5-1.6-2.62-3.84-2.62-4.36,0-8.78,3.68-10.56,7.48,3.53-.25,6.98-.69,10.4-1.56Z"/>
    <path d="M188.43,45.12c-1.62,0-2.19-.87-1.42-2.74l8.1-19.26c1.19-2.81,2.82-7.67,3.47-9.54.64-1.93,1.41-2.37,3.03-2.37h7.1c1.62,0,2.26.87,1.49,2.81l-1.13,2.74h.12c3.69-3.37,8.73-6.36,13.84-6.36,3.18,0,4,.87,3.66,3.37l-.66,5.3c-.16,1.68-.79,2.37-2.3,2.24-1.13-.06-2.44-.12-3.32-.12-9.6,0-14.7,7.92-18.2,16.33l-2.22,5.3c-.88,2.06-1.48,2.31-3.1,2.31h-8.48Z"/>
    <path d="M100.42,21.87c-.73-8.29-8.7-11.78-17.24-11.78-18.2,0-29.92,12.71-28.91,24.37.73,8.29,8.7,11.78,17.24,11.78,18.2,0,29.92-12.71,28.91-24.37ZM87.96,19.97c-1.19,0-2.25-.97-2.35-2.16-.1-1.19.78-2.16,1.97-2.16s2.25.97,2.35,2.16-.78,2.16-1.97,2.16ZM92.4,24.67c-1.19,0-2.25-.97-2.35-2.16-.1-1.19.78-2.16,1.97-2.16s2.25.97,2.35,2.16c.1,1.19-.78,2.16-1.97,2.16Z"/>
  </g>
</svg>