<?xml version="1.0" encoding="UTF-8"?>
<svg id="Layer_1" data-name="Layer 1" xmlns="http://www.w3.org/2000/svg" viewBox="0 0 269.46 97.22">
  <path d="M63.77,0v56.4l-.36.36h-5.64v-4.79c-4.68,6.38-13.33,7.69-19.54,2.63-14.59-11.9.9-40.22,17.87-25.51l1.67,2.04V0h6ZM55.05,33.14c-3.99-4.05-10.92-3.52-14.27,1.03-5.86,7.97.15,21.37,10.92,17.61,7.11-2.48,8.27-13.65,3.35-18.64Z"/>
  <path d="M107.67,56.76v-18.8c0-.29-.22-1.92-.3-2.33-.67-3.66-2.78-5.71-6.67-5.1-4.74.75-5.29,6.17-5.5,10.07-.28,5.3.21,10.84,0,16.16h-5.64l-.36-.36v-20.12c0-.25-.53-2.07-.68-2.44-1.71-4.43-7.34-4.56-9.84-.87-.9,1.33-1.72,4.61-1.72,6.19v17.6h-5.64l-.36-.36v-30.3h6v3.59c4.47-6.11,12.93-6.17,16.91.48l.36-.11c3.09-4.89,10.64-6.68,15.32-3.1,6.6,5.04,3.25,21.52,4.11,28.97l-.37.83h-5.64Z"/>
  <path d="M53.22,94.36l-7.29,2.86-1.93-3.04c-8.25,3.23-18.71.21-20.46-9.34-3.66-20.08,30.17-22.28,28.24-.9-.21,2.27-1.22,4.16-2.13,6.18l3.57,4.24ZM36.43,84.55c.17-.2,4.36-.62,5.16-.96,1.24-.52.64-3.2.08-4.16-1.92-3.32-7.32-2.99-8.53.75s1.08,7.07,4.97,7l-1.68-2.63Z"/>
  <polygon points="143.65 69.22 143.65 77.84 149.16 77.84 149.16 69.22 158.28 69.22 158.28 95.08 149.52 95.08 149.16 94.72 149.16 86.22 143.65 86.22 143.65 95.08 134.53 95.08 134.53 69.22 143.65 69.22"/>
  <path d="M29.95,42.39H6.69c.31,11.03,13.25,13.65,18.34,4.1l4.92,2.61c-6.68,12.86-26.32,11.22-28.95-4.03-2.14-12.4,6.46-23.26,19.54-19.28,5.09,1.55,9.41,7.58,9.41,12.88v3.71ZM23.96,37.84c-1.29-10.24-15.28-9.78-17.03,0h17.03Z"/>
  <path d="M132.8,25.22c22.82-2.34,24.9,30.98,3.28,32.5-21.37,1.5-23.69-30.4-3.28-32.5ZM133.03,30.96c-12.36,1.67-10.71,22.35,3.03,20.98,13.33-1.32,11.86-23-3.03-20.98Z"/>
  <path d="M217.95,25.22c22.83-2.34,24.73,31.19,3.04,32.5-21.25,1.28-23.51-30.4-3.04-32.5ZM218.18,30.96c-12.43,1.68-10.89,22.36,3.03,20.98,13.11-1.29,11.84-23-3.03-20.98Z"/>
  <path d="M64.97,69.22v16.65c0,.77,1.57,1.51,2.3,1.53.79.02,2.5-.68,2.5-1.53v-16.65h9.59v17.12c0,.27-.56,2.24-.71,2.64-3.55,9.92-23.28,8.24-23.28-3.12v-16.65h9.59Z"/>
  <path d="M228.55,69.22v15.21c0,.1.35,1.55.42,1.74.84,2.07,4.62,1.04,4.62-.3v-16.65h9.59v16.65c0,1.44-1.24,4.58-2.16,5.74-5.27,6.63-21.82,4.58-21.82-5.26v-17.12h9.35Z"/>
  <path d="M260.57,69.22c1.19.12,3.52.82,4.6,1.39,3.76,2.01,4.33,8.21.68,10.6-.44.29-1.02.03-.84.7,5.47,1.48,5.96,9.1,1.08,11.74-1.05.57-3.67,1.43-4.8,1.43h-14.03v-25.87c4.26.32,9.12-.42,13.31,0ZM255.9,79.04c5.14.82,5.05-4.3,0-3.59v3.59ZM255.9,88.86c6.47.71,6.51-4.99,0-4.31v4.31Z"/>
  <path d="M109.59,95.08h-9.83l-1.11-3.32-6.66-.05-.98,3.37h-9.71l9.23-25.88,10.09.25,8.99,25.63ZM93.75,85.5h3.36l-1.8-7.67-1.56,7.67Z"/>
  <path d="M261.89,56.76c-.22-5.81.29-11.83,0-17.61-.09-1.79-.24-4.56-1.08-6.11-1-1.85-3.04-2.54-5.04-2.63-7.23-.33-8.02,4.76-8.3,10.66-.25,5.16.2,10.52,0,15.7h-5.64l-.36-.36v-30.3h6v4.07l2.03-2.4c3.46-3.08,9.49-3.54,13.48-1.24s4.68,7.84,4.88,12.13c.21,4.62.52,12.88,0,17.27-.04.35-.03.62-.37.83h-5.64Z"/>
  <path d="M176.75,56.76v-20.24c0-.58-.51-2.44-.77-3.06-1.6-3.85-8.48-3.94-11.13-1.29-1,1-2.24,4.18-2.24,5.54v18.68l-.36.36h-5.64v-30.66h6v3.83c.58-.44.9-1.27,1.43-1.81,3.54-3.61,10.9-4.07,14.86-.93,6.4,5.08,2.96,21.35,3.87,28.73l-.37.83h-5.64Z"/>
  <path d="M130.69,70.9l-2.4,6.7c-2.13-.82-4.27-2.37-6.72-1.57-.77.25-1.03,1.5-.56,1.83.92.66,5.09,1.12,6.82,2,4.43,2.26,4.85,8.27,1.79,11.87-4.39,5.16-13.46,4.11-18.97,1.44-.42-.59,2.42-6.27,2.54-7.43,1.68,1.41,6.58,4,8.4,2.04,1.98-2.14-3-2.34-4.09-2.63-10.17-2.71-6.93-14,1.96-16.02,3.99-.9,7.62.06,11.23,1.77Z"/>
  <path d="M17.72,77.6c-.27.23-2.32-1.13-2.88-1.31-1.15-.37-4.77-1-4.73.92.02,1.12,3.55,1.42,4.5,1.71,4.62,1.39,7.22,4.16,6.18,9.29-1.59,7.8-11.92,8.02-17.98,6.1-1.04-.33-2.98-.71-2.78-1.91.3-1.84,2.31-4.61,2.6-6.65,1.58,1.37,6.54,3.92,8.28,2.17,2.32-2.33-3.75-2.65-4.93-3.01-3.67-1.12-5.74-3.96-5.21-7.84,1.17-8.55,13.38-10.42,19.29-5.82l-2.32,6.35Z"/>
  <path d="M195.9,69.97l.27,9.55c-1.31-.44-2.28-1.6-3.6-2.03-7.18-2.33-9.72,7.56-3.41,9.39,2.73.79,4.87-.56,7.01-2.09l-.35,9.59c-8.53,3.23-18.93-.89-19.79-10.67-.97-10.99,10.02-17.86,19.87-13.73Z"/>
  <polygon points="208.89 69.22 208.89 86.7 216.8 86.7 216.8 95.08 199.53 95.08 199.53 69.22 208.89 69.22"/>
  <path d="M197.61,14.37v11.74h5.76v5.15l-.36.36h-5.4v24.79l-.36.36h-5.64v-25.15c-1.07-.15-2.53.37-3.36-.36v-5.15h3.36v-11.74h6Z"/>
</svg>