<?xml version="1.0" encoding="UTF-8"?>
<svg id="Layer_1" data-name="Layer 1" xmlns="http://www.w3.org/2000/svg" viewBox="0 0 222.94 224.06">
  <path d="M185.95,0l37,188-185.52,36.07L0,37.05,184.95,0h1ZM180.93,7.99L7.36,42.96l34.55,173.61,29.03-5.59-13.47-8.01c-51.69-45.94,15.38-118.73,65.41-71.34l-45.91,48.86c8.61,7.22,23.26,2.9,27.87-7.11,1.84-4,1.55-8,3.05-11.95l21.04-22.44c12.11,20.96,7.93,44.52-7.98,61.99l95.01-19L180.93,7.99ZM72.64,131.11c-4.46,1.11-2.55,7.82,1.61,6.78,4.46-1.11,2.55-7.82-1.61-6.78ZM60.58,136.06c-2.23.66-3.58,5.03-.63,6.44,7.16,3.42,5.83-7.99.63-6.44ZM90.94,146.01c-13.35-2.22-25.29,9.88-21.98,22.99,6.05-6.36,15.27-13.19,20.49-19.99.77-1,1.94-1.27,1.49-3Z"/>
</svg>